<svg xmlns="http://www.w3.org/2000/svg" width="63" height="63.007" viewBox="0 0 63 63.007"><defs><style>.a{fill:#291720;stroke:#291720;stroke-width:3px;}</style></defs><path class="a" d="M52.395,13.124a7.5,7.5,0,0,0-3.633,13.993v13.2c0,6.715-5.883,12.188-13.125,12.188-7.031,0-12.8-5.168-13.113-11.626A18.8,18.8,0,0,0,37.5,22.5V4.288a2.811,2.811,0,0,0-2.262-2.754L27.867.057a2.805,2.805,0,0,0-3.3,2.2L24.188,4.1a2.805,2.805,0,0,0,2.2,3.3l3.6.715V22.348a11.25,11.25,0,1,1-22.5.141V8.132l3.6-.715a2.805,2.805,0,0,0,2.2-3.3l-.363-1.84a2.805,2.805,0,0,0-3.3-2.2L2.262,1.522A2.824,2.824,0,0,0,0,4.288V22.5A18.779,18.779,0,0,0,15.012,40.876C15.316,51.47,24.445,60,35.625,60,46.992,60,56.25,51.166,56.25,40.313v-13.2a7.5,7.5,0,0,0-3.855-13.993ZM52.5,22.5a1.875,1.875,0,1,1,1.875-1.875A1.881,1.881,0,0,1,52.5,22.5Z" transform="translate(1.5 1.505)"/></svg>