<svg xmlns="http://www.w3.org/2000/svg" width="79" height="43" viewBox="0 0 76 38.913"><defs><style>.a{fill:#291720;}</style></defs><path class="a" d="M78.511,29.128a11.975,11.975,0,0,1-7.448,11.335v5.689a2.432,2.432,0,0,1-2.43,2.432H12.391a2.431,2.431,0,0,1-2.432-2.432V40.463A11.971,11.971,0,0,1,2.511,29.128a11.974,11.974,0,0,1,7.45-11.335V12.1a2.429,2.429,0,0,1,2.432-2.432H68.636a2.43,2.43,0,0,1,2.43,2.432v5.69a11.973,11.973,0,0,1,7.445,11.335Zm-46.664,0H22.119V31.56h9.728V29.128ZM43.4,20.835a4.077,4.077,0,0,0-5.636,0,5.022,5.022,0,0,0-1.03,3.472,5.048,5.048,0,0,0,1.03,3.485,2.732,2.732,0,0,0,2.391,1.128A4.683,4.683,0,0,0,43.4,27.792a5.06,5.06,0,0,0,1.028-3.485,5.042,5.042,0,0,0-1.03-3.472Zm8.273-1.512L39.192,38.912h2.471L54.08,19.324H51.67Zm3.885,11.237a4.086,4.086,0,0,0-5.638,0,5.038,5.038,0,0,0-1.026,3.472,5.056,5.056,0,0,0,1.026,3.485,3.658,3.658,0,0,0,2.852,1.131,3.583,3.583,0,0,0,2.789-1.131,5.056,5.056,0,0,0,1.028-3.485,5.05,5.05,0,0,0-1.03-3.472Zm-2.847,6.2a.941.941,0,0,1-.823-.442,4.487,4.487,0,0,1-.393-2.286,4.55,4.55,0,0,1,.393-2.3.931.931,0,0,1,.823-.432.961.961,0,0,1,.835.432,4.674,4.674,0,0,1,.381,2.3,4.557,4.557,0,0,1-.393,2.3.926.926,0,0,1-.823.432ZM40.55,27.04a.938.938,0,0,1-.823-.444,4.488,4.488,0,0,1-.393-2.286,4.55,4.55,0,0,1,.393-2.3.929.929,0,0,1,.823-.43.961.961,0,0,1,.835.43,4.674,4.674,0,0,1,.381,2.3,4.557,4.557,0,0,1-.393,2.3A.934.934,0,0,1,40.55,27.04Z" transform="translate(-2.511 -9.671)"/></svg>