<svg xmlns="http://www.w3.org/2000/svg" width="76" height="76" viewBox="0 0 76 76"><defs><style>.a{fill:#291720;}</style></defs><path class="a" d="M25.313,18H28.3v8.957H25.313Z" transform="translate(30.124 19.544)"/><path class="a" d="M7.875,26.957H32.058L23.1,18H7.875Z" transform="translate(1.124 19.544)"/><path class="a" d="M58.656,7.017a1.491,1.491,0,0,1-.17-.1A37.116,37.116,0,0,0,52.651,4.4L51.735,4.1A37.953,37.953,0,0,0,21.827,73.466c.068.034.119.085.187.119A37.115,37.115,0,0,0,27.849,76.1l.916.305A37.957,37.957,0,0,0,58.656,7.017ZM40.25,69.157a27.456,27.456,0,0,1-4.614-.407A28.864,28.864,0,0,1,30.8,67.512c-.322-.1-.645-.2-.95-.322a27.55,27.55,0,0,1-3.223-1.459,28.73,28.73,0,0,1-9.737-42.36L57.129,63.61A28.731,28.731,0,0,1,40.25,69.157ZM63.627,57.112,23.387,16.873a28.7,28.7,0,0,1,16.863-5.53,27.616,27.616,0,0,1,4.614.407A28.864,28.864,0,0,1,49.7,12.988c.305.1.628.2.95.322A27.479,27.479,0,0,1,53.7,14.685a28.7,28.7,0,0,1,9.924,42.428Z" transform="translate(-2.25 -2.25)"/><path class="a" d="M28.7,18H22.359L28.7,24.344Z" transform="translate(25.76 19.688)"/><path class="a" d="M27,18h2.986v8.957H27Z" transform="translate(32.493 19.544)"/><path class="a" d="M39.506,28.549C37.864,27.784,35.4,27.486,31,27.486h-.672c-2.37.019-2.967-.019-3.732-1.138-.522-.784-.187-2.762.69-4.086a1.5,1.5,0,0,0,.075-1.53,1.542,1.542,0,0,0-1.306-.8,10.014,10.014,0,0,1-3.415-.728,4.324,4.324,0,0,1-2.911-4.31c0-4.814,4.068-5.169,4.254-5.169V6.736a7.772,7.772,0,0,0-7.24,8.154,7.328,7.328,0,0,0,4.8,7.091,12.424,12.424,0,0,0,2.239.672,6.2,6.2,0,0,0,.317,5.355c1.679,2.482,3.788,2.463,6.214,2.444h.653c4.908,0,6.456.429,7.259.8,1.064.485,1.269,1.4,1.232,2.93v.187h2.986v-.187C42.436,32.86,42.492,29.93,39.506,28.549Z" transform="translate(16.671 11.054)"/><path class="a" d="M40.335,32.611c0-4.8-.56-7.315-1.7-9.255a8.207,8.207,0,0,0-7.259-4.18H28.131a11.974,11.974,0,0,0,.653-5.766c-.6-3.508-3.564-5.6-8.042-5.6V10.8c3.919,0,4.87,1.7,5.113,3.116.466,2.706-1.269,5.99-1.288,6.027a1.484,1.484,0,0,0,.019,1.474,1.5,1.5,0,0,0,1.288.728h5.5a5.152,5.152,0,0,1,4.684,2.724c.578.989,1.288,2.519,1.288,7.725h2.986Z" transform="translate(22.509 1.025)"/></svg>