<svg xmlns="http://www.w3.org/2000/svg" width="68" height="60" viewBox="0 0 68 60"><defs><style>.a{fill:#291720;}</style></defs><path class="a" d="M46.749,11.25C46.749,5.037,41.041,0,34,0S21.25,5.037,21.25,11.25,26.958,22.5,34,22.5,46.749,17.463,46.749,11.25Zm-15.726,17C23.143,24,10.38,22.828,3.958,22.506,1.8,22.4,0,23.849,0,25.68V51.79a3.445,3.445,0,0,0,3.518,3.17c5.8.268,17.53,1.252,25.638,4.855a1.86,1.86,0,0,0,2.72-1.391V29.6a1.529,1.529,0,0,0-.853-1.343Zm33.018-5.748C57.62,22.827,44.855,24,36.977,28.254a1.555,1.555,0,0,0-.851,1.363v28.8a1.866,1.866,0,0,0,2.728,1.395c8.107-3.6,19.831-4.583,25.628-4.852A3.446,3.446,0,0,0,68,51.792V25.68C68,23.849,66.2,22.4,64.041,22.506Z"/></svg>