<svg xmlns="http://www.w3.org/2000/svg" width="67.059" height="67.059" viewBox="0 0 67.059 67.059"><defs><style>.a{fill:#291720;}</style></defs><path class="a" d="M28.29,34.053a3.667,3.667,0,1,1-7.335,0,10.478,10.478,0,1,1,20.956,0,3.667,3.667,0,1,1-7.335,0,3.143,3.143,0,1,0-6.287,0ZM31.434,11A23.078,23.078,0,0,0,8.382,34.053a3.667,3.667,0,1,0,7.335,0,15.717,15.717,0,1,1,31.434,0c0,9.845-9.3,9.209-9.43,18.811v.05a6.818,6.818,0,0,1-6.811,6.811,3.667,3.667,0,0,0,0,7.335A14.162,14.162,0,0,0,45.055,52.943c.078-4.509,9.43-6.318,9.43-18.89A23.078,23.078,0,0,0,31.434,11ZM20.956,41.912A4.191,4.191,0,1,0,25.147,46.1,4.191,4.191,0,0,0,20.956,41.912ZM4.191,58.676a4.191,4.191,0,1,0,4.191,4.191A4.191,4.191,0,0,0,4.191,58.676ZM67.059,34.054c0-.2,0-.4-.006-.593A35.805,35.805,0,0,0,42.959.2a3.667,3.667,0,0,0-2.372,6.941A28.452,28.452,0,0,1,59.719,33.589v.025c0,.146,0,.293,0,.44a3.667,3.667,0,0,0,7.335,0ZM20.035,57.5,9.557,47.024,5.112,51.469,15.59,61.947Z" transform="translate(0 0)"/></svg>