<svg xmlns="http://www.w3.org/2000/svg" width="20" height="12" viewBox="0 0 24.879 16.794">
  <defs>
    <style>
      .cls-1 {
        fill: #291720;
      }
    </style>
  </defs>
  <path id="Icon_zocial-email" data-name="Icon zocial-email" class="cls-1" d="M.072,19.374V5.555q0-.024.072-.456l8.133,6.957-8.109,7.8a2.033,2.033,0,0,1-.1-.48ZM1.152,4.14a1.034,1.034,0,0,1,.408-.072h21.9a1.359,1.359,0,0,1,.432.072l-8.157,6.981-1.08.864-2.135,1.751-2.135-1.751-1.08-.864Zm.024,16.65,8.181-7.845,3.167,2.567,3.167-2.567,8.181,7.845a1.152,1.152,0,0,1-.408.072H1.559a1.087,1.087,0,0,1-.384-.072ZM16.77,12.057,24.879,5.1a1.432,1.432,0,0,1,.072.456V19.374a1.839,1.839,0,0,1-.072.48Z" transform="translate(-0.072 -4.068)"/>
</svg>
