<svg xmlns="http://www.w3.org/2000/svg" width="99.688" height="63.438" viewBox="0 0 99.688 63.438"><defs><style>.a{fill:#291720;}</style></defs><path class="a" d="M69.469,34.688A13.594,13.594,0,1,0,55.876,21.094,13.537,13.537,0,0,0,69.469,34.688Zm-36.25,0A13.594,13.594,0,1,0,19.625,21.094,13.537,13.537,0,0,0,33.219,34.688Zm0,9.063C22.661,43.75,1.5,49.052,1.5,59.61V70.938H64.938V59.61C64.938,49.052,43.777,43.75,33.219,43.75Zm36.25,0c-1.314,0-2.809.091-4.4.227C70.33,47.783,74,52.9,74,59.61V70.938h27.188V59.61C101.188,49.052,80.027,43.75,69.469,43.75Z" transform="translate(-1.5 -7.5)"/></svg>