<svg xmlns="http://www.w3.org/2000/svg" width="2214.436" height="4828.553" viewBox="0 0 2214.436 4828.553">
  <defs>
    <style>
      .cls-1 {
        fill: #ee6c4d;
      }

      .cls-2 {
        fill: #f0e2a3;
      }

      .cls-3 {
        fill: #fff;
      }

      .cls-4 {
        fill: #c1d37f;
      }

      .cls-5 {
        fill: #bababa;
      }
    </style>
  </defs>
  <g id="Warstwa_10" transform="translate(105.53 -141.894)">
    <path id="Path_4536" data-name="Path 4536" class="cls-1" d="M-50.38,1031.69s76.6-13.79,177.7,6.13,170.04,35.23,268.09-19.91,142.47-125.62,326.3-170.04,261.96-130.21,315.57-272.68,99.57-295.66,228.26-381.45,268.09-41.36,298.72-32.17,82.04,35.91,106.89,72,25.87,79.32,25.87,79.32,25.87,53.11,59.91,80,97.36,73.19,122.55,141.96,24.34,170.04-66.55,208.34c0,0,85.79-21.45,77.11-108.77S1835.4,498.59,1758.3,474.08s-83.74,278.81-83.74,278.81-26.55,95.49,74.55,177.19,196.09,85.79,196.09,85.79V3809.06H-77.96Z"/>
    <path id="Path_4537" data-name="Path 4537" class="cls-2" d="M1349.79,521.91s-26.55-18.04-57.53-5.79-22.81,34.38-19.4,54.81,7.83,36.09,38.13,49.7l13.96,6.81s34.3,82.55-63.74,152.51c0,0-2.81,55.66-95.23,185.36,0,0,16.85,61.02,147.06,78.64s153.96,9.19,202.21,15.32c0,0-35.74-73.53,7.15-181.79S1599,746.76,1599,746.76s48.51,14.3,84.26,11.23,47.57-8.43,59.49-13.53,20.34-7.06,20.34-32.26-5.29-49.22.51-57.19c4.09-5.62,11.91-12.43-.17-30.64,0,0,14.3-19.06,2.38-30.98a49.03,49.03,0,0,1-13.62-26.21s2.72-6.47,5.79-12.6,1.7-10.55,7.83-19.4,23.83-22.81,7.49-43.23-36.43-43.57-52.43-59.57a42.863,42.863,0,0,1-7.83-13.62c-3.06-8.51,4.94-36.09,4.09-43.57s-5.79-18.21-8.51-22.98-13.62-23.15-23.57-40.51-22.21-47.49-49.28-70.72c-11.32-9.72-32.17-21.7-45.19-21.96-18.13-.36-46.72,8.94-66.38,28.34-18.52,18.28-24.33,28.71-30.38,37.79-1.36,2.04,2.89,24.85,6.38,47.23,2.73,17.5,41.96,181.36-88.77,217.79,0,0,58.55-11.57,66.38-90.21s-20.09-117.79-20.09-117.79S1490.04,517.14,1349.79,521.91Z"/>
    <g id="Group_1717" data-name="Group 1717">
      <g id="Group_1706" data-name="Group 1706">
        <path id="Path_4538" data-name="Path 4538" class="cls-1" d="M1270.17,195.46a20.077,20.077,0,0,0-2.19.73c-.72.28-1.46.5-2.15.85-1.4.66-2.82,1.28-4.2,1.97l-4.05,2.27-2.03,1.13-1.94,1.28-3.88,2.55-1.94,1.27c-.64.43-1.24.93-1.86,1.39l-7.4,5.62c-.63.45-1.21.96-1.8,1.47l-1.76,1.52-3.52,3.04-3.51,3.04c-.58.51-1.18,1-1.75,1.53l-1.67,1.62-6.67,6.48c-2.22,2.17-4.51,4.25-6.57,6.58l-12.65,13.64-11.97,14.25c-4.09,4.67-7.73,9.7-11.53,14.61l-5.67,7.38-2.84,3.68-1.42,1.84-1.35,1.9-10.76,15.19c-3.57,5.07-7.25,10.08-10.55,15.33l-10.17,15.6c-3.37,5.21-6.86,10.35-9.99,15.71l-19.29,31.87-18.42,32.39-4.62,8.09-4.4,8.21-8.8,16.43c-5.85,10.96-11.81,21.87-17.43,32.96-5.72,11.04-11.35,22.13-16.99,33.21l-16.63,33.39c-5.51,11.15-11.05,22.28-16.48,33.47l-16.38,33.52c-11.06,22.28-22.05,44.61-34.34,66.3-6.2,10.81-12.71,21.45-19.81,31.73a244.2,244.2,0,0,1-23.7,29.06,206.951,206.951,0,0,1-28.28,24.69A299.967,299.967,0,0,1,845,794.14c-22.06,11.77-45,21.65-68.15,30.83-5.8,2.25-11.59,4.56-17.41,6.76l-17.48,6.55q-17.5,6.45-35.07,12.77-35.16,12.51-70.49,24.51c-11.77,4.02-23.52,8.05-35.22,12.23s-23.33,8.5-34.74,13.31a275.878,275.878,0,0,0-33.27,16.38,214.28,214.28,0,0,0-30.23,21.45c-18.94,16-35.74,34.44-52.23,53.03l-.3-.26c7.97-9.55,16.1-18.97,24.55-28.11a341.583,341.583,0,0,1,26.66-26.2,216.483,216.483,0,0,1,30.2-22.15,263.151,263.151,0,0,1,33.38-17c11.46-4.96,23.1-9.41,34.78-13.72s23.41-8.45,35.14-12.59c23.46-8.27,46.94-16.42,70.31-24.89,23.39-8.42,46.74-16.95,69.88-25.94,23.12-9.02,45.99-18.73,67.9-30.26a305.663,305.663,0,0,0,31.53-19.44,202.323,202.323,0,0,0,28.07-24.04,253.721,253.721,0,0,0,23.75-28.43c7.18-10.09,13.81-20.58,20.14-31.25,6.2-10.75,12.25-21.6,18-32.62,5.83-10.97,11.43-22.08,16.97-33.2l16.53-33.44c5.51-11.15,10.87-22.37,16.34-33.54l16.4-33.51c5.47-11.17,10.93-22.35,16.47-33.48,5.44-11.18,11.25-22.19,16.94-33.26l8.57-16.59,4.28-8.29,4.53-8.16,18.26-32.58c6.39-10.69,12.89-21.31,19.39-31.93,3.17-5.36,6.7-10.5,10.11-15.7l10.3-15.59c3.35-5.25,7.07-10.26,10.68-15.33l10.89-15.19,1.36-1.9,1.44-1.84,2.88-3.68,5.78-7.35c3.89-4.87,7.61-9.87,11.79-14.5l12.24-14.14,12.91-13.53c2.1-2.3,4.44-4.38,6.7-6.52l6.84-6.38,1.71-1.59c.58-.52,1.2-1,1.79-1.5l3.61-2.98,3.61-2.98,1.8-1.49c.6-.5,1.2-1,1.84-1.44l7.58-5.49c.64-.45,1.25-.93,1.91-1.35l1.99-1.24,3.97-2.48,1.98-1.24,2.07-1.09,4.15-2.17c1.42-.66,2.87-1.24,4.3-1.86.71-.33,1.47-.54,2.2-.8s1.48-.5,2.26-.68Z"/>
      </g>
      <g id="Group_1707" data-name="Group 1707">
        <path id="Path_4539" data-name="Path 4539" class="cls-1" d="M1143.14,343.98c-3.14,4.49-6.05,9.16-8.9,13.85-1.45,2.33-2.84,4.7-4.23,7.07q-2.115,3.54-4.14,7.12l-4.07,7.16-3.99,7.21c-2.68,4.8-5.25,9.65-7.88,14.47-10.42,19.35-20.29,38.98-30.14,58.63-19.63,39.33-38.1,79.23-56.72,119.06-9.34,19.92-18.81,39.78-28.82,59.39-5.03,9.79-10.13,19.55-15.55,29.13l-4.03,7.2-4.18,7.12-2.09,3.56-2.18,3.51-4.38,7c-6.06,9.2-12.36,18.25-19.27,26.84a234.111,234.111,0,0,1-22.4,24.31,236.7,236.7,0,0,1-25.9,20.58,274.582,274.582,0,0,1-28.65,16.57l-7.48,3.54c-1.25.58-2.49,1.19-3.75,1.76l-3.8,1.63-7.61,3.26-7.7,3.02-3.85,1.51-3.89,1.41-7.78,2.8c-5.21,1.79-10.46,3.48-15.69,5.2-21.02,6.63-42.29,12.38-63.64,17.73s-42.8,10.27-64.16,15.42-42.73,10.3-64,15.82c-21.28,5.45-42.45,11.3-63.42,17.75-2.63.79-5.24,1.63-7.84,2.48l-7.82,2.54c-5.17,1.81-10.39,3.51-15.51,5.45-2.56.96-5.16,1.85-7.7,2.88l-7.64,3.02c-5.04,2.13-10.11,4.21-15.04,6.57a245.328,245.328,0,0,0-28.81,15.59,152.56,152.56,0,0,0-25.58,20.33,135.181,135.181,0,0,0-20.17,25.73,172.314,172.314,0,0,0-14.06,29.69l-.38-.13a166.62,166.62,0,0,1,13.32-30.21,131.81,131.81,0,0,1,19.85-26.49,154.091,154.091,0,0,1,25.59-21.1,233.6,233.6,0,0,1,28.91-16.23c4.96-2.44,10.05-4.59,15.11-6.8l7.67-3.13c2.55-1.06,5.15-1.98,7.72-2.98,5.14-2.01,10.36-3.78,15.55-5.65l7.84-2.64c2.61-.88,5.22-1.76,7.85-2.58,20.99-6.74,42.22-12.6,63.51-18.2q31.965-8.3,64.11-15.75c21.42-5.02,42.88-9.79,64.22-15.01,21.33-5.25,42.6-10.74,63.6-17.11,20.97-6.43,41.7-13.73,61.53-23.06a272.209,272.209,0,0,0,28.65-16.03c4.5-3.12,9.08-6.13,13.34-9.58l3.24-2.53c1.1-.82,2.09-1.77,3.14-2.65,2.06-1.81,4.17-3.55,6.18-5.42a231.568,231.568,0,0,0,22.39-24.05l5.07-6.48c1.66-2.19,3.2-4.45,4.81-6.68l2.39-3.35,2.27-3.43,4.53-6.87,4.31-7.01,2.15-3.51,2.06-3.56,4.12-7.13,3.95-7.23c5.24-9.65,10.15-19.48,15-29.33,9.65-19.74,18.74-39.75,27.78-59.79q27.165-60.135,57-119.05c5.02-9.79,10.04-19.58,15.26-29.27,2.59-4.85,5.15-9.72,7.82-14.53s5.24-9.67,7.97-14.45c5.37-9.61,10.87-19.14,16.61-28.53s11.54-18.75,18.13-27.6Z"/>
      </g>
      <g id="Group_1708" data-name="Group 1708">
        <path id="Path_4540" data-name="Path 4540" class="cls-1" d="M1495.05,248.56c2.61,7.6,4.82,15.31,6.88,23.07,1.03,3.88,2.02,7.77,2.94,11.67s1.84,7.81,2.66,11.74q1.26,5.895,2.39,11.8,1.095,5.925,2.1,11.86,1.995,11.88,3.21,23.88c.79,8,1.28,16.03,1.61,24.05.15,4.01.27,8.03.31,12.04.09,4.01.09,8.03.09,12.04-.09,16.04-.67,32.13-3.42,48.06a119.673,119.673,0,0,1-6.36,23.48,81.874,81.874,0,0,1-5.38,11.07,65.287,65.287,0,0,1-7.22,10.05,174.968,174.968,0,0,1-36.13,32.42,205.56,205.56,0,0,1-43.18,21.96,212.555,212.555,0,0,1-23.1,7.14c-3.91.98-7.85,1.81-11.8,2.54s-7.93,1.35-11.94,1.7l-.06-.5a218.647,218.647,0,0,0,23.11-6.2c3.79-1.22,7.54-2.55,11.28-3.92,3.72-1.41,7.41-2.87,11.07-4.42a235.382,235.382,0,0,0,41.64-22.71,208,208,0,0,0,18.74-14.45,165.132,165.132,0,0,0,16.82-16.64,73.269,73.269,0,0,0,12.46-19.6c1.57-3.59,2.99-7.26,4.21-11.02,1.19-3.76,2.29-7.57,3.16-11.45s1.63-7.78,2.24-11.71c.66-3.93,1.09-7.89,1.46-11.86a232.957,232.957,0,0,0,.79-23.93c-.3-15.98-2.34-31.86-4.52-47.65q-1.65-11.85-3.45-23.68-.9-5.91-1.91-11.82c-.66-3.94-1.3-7.88-2.02-11.8-2.78-15.73-5.87-31.41-9.16-47.09Z"/>
      </g>
      <g id="Group_1709" data-name="Group 1709">
        <path id="Path_4541" data-name="Path 4541" class="cls-1" d="M1496.92,276.16a184.852,184.852,0,0,1,7.58,24.09c.48,2.05,1,4.09,1.45,6.15.43,2.06.89,4.12,1.29,6.19.84,4.13,1.51,8.29,2.05,12.47,1.06,8.36,1.49,16.79,2.14,25.16.21,2.09.29,4.19.48,6.28l.26,3.14.23,3.14.24,3.14c.1,1.05.19,2.09.26,3.14l.43,6.3a217.171,217.171,0,0,1-2.46,50.52,176.005,176.005,0,0,1-6.44,24.56,135.347,135.347,0,0,1-10.67,22.96l-.36-.18a246.869,246.869,0,0,0,8.02-23.72c2.1-8.05,3.88-16.16,5.24-24.35.62-4.11,1.31-8.2,1.79-12.33.61-4.11.95-8.26,1.36-12.41.27-4.16.61-8.31.79-12.48.26-4.17.39-8.34.53-12.52a194.581,194.581,0,0,0-1.01-25.08c-.87-8.33-2.58-16.56-4.13-24.76l-4.52-24.65c-1.57-8.21-3.24-16.41-4.93-24.64Z"/>
      </g>
      <g id="Group_1710" data-name="Group 1710">
        <path id="Path_4542" data-name="Path 4542" class="cls-1" d="M1693.58,306.25c2.21,3.81,4.68,7.47,7.18,11.09,1.3,1.78,2.57,3.58,3.9,5.33,1.36,1.74,2.64,3.52,4.01,5.25,5.4,6.95,11.2,13.58,17.09,20.11,3,3.22,5.96,6.47,9.08,9.58l4.6,4.73,4.74,4.59c1.59,1.52,3.15,3.07,4.76,4.57l4.85,4.48c1.63,1.48,3.21,3.01,4.86,4.47l4.95,4.38,4.92,4.4,5.04,4.27c3.36,2.85,6.72,5.7,10.15,8.51q5.1,4.245,10.14,8.56,5.055,4.29,10.07,8.65,10.035,8.685,19.81,17.66c6.49,6.02,12.93,12.09,19.1,18.46a271.988,271.988,0,0,1,33.74,41.17c2.45,3.72,4.8,7.51,7.01,11.39,2.23,3.86,4.31,7.82,6.25,11.84a152.743,152.743,0,0,1,9.54,25.08c1.2,4.32,2.14,8.71,2.93,13.13a118.978,118.978,0,0,1,1.58,26.83,122,122,0,0,1-1.52,13.35,108.008,108.008,0,0,1-3.04,13.06,130.062,130.062,0,0,1-4.4,12.63c-.89,2.04-1.69,4.12-2.69,6.11l-1.44,3-1.55,2.95c-1,1.98-2.16,3.88-3.25,5.81-1.11,1.92-2.35,3.76-3.51,5.64l-.34-.21c2.08-3.9,4.14-7.79,5.95-11.81l1.36-3.01,1.24-3.05c.86-2.02,1.58-4.1,2.36-6.15a127.5,127.5,0,0,0,6.21-25.44,122.145,122.145,0,0,0,.73-26.06c-.4-4.33-.94-8.65-1.72-12.92-.82-4.27-1.79-8.51-3-12.69-1.23-4.18-2.53-8.33-4.1-12.4s-3.24-8.1-5.1-12.05c-1.84-3.96-3.81-7.86-5.94-11.69q-3.165-5.745-6.71-11.29a319.446,319.446,0,0,0-32.18-41.71,385.14,385.14,0,0,0-38.16-36.64c-13.46-11.44-28-21.49-41.65-32.86l-5.08-4.29c-1.7-1.42-3.3-2.96-4.95-4.45l-4.91-4.49c-1.64-1.5-3.17-3.1-4.77-4.65l-4.74-4.68-4.59-4.82c-3.09-3.18-5.99-6.55-8.94-9.87-1.49-1.64-2.88-3.38-4.3-5.08-1.4-1.72-2.85-3.4-4.19-5.17l-4.08-5.26-3.91-5.39c-1.29-1.81-2.52-3.65-3.76-5.49s-2.38-3.74-3.58-5.61a121.017,121.017,0,0,1-6.4-11.66Z"/>
      </g>
      <g id="Group_1711" data-name="Group 1711">
        <path id="Path_4543" data-name="Path 4543" class="cls-1" d="M1701.75,324.9a169.417,169.417,0,0,0,12.17,15.97c4.28,5.14,8.82,10.07,13.37,14.97,9.17,9.75,18.85,19.01,28.65,28.14,4.83,4.64,9.86,9.08,14.83,13.58,5.06,4.4,10.1,8.83,15.34,13.02l15.8,12.49q3.945,3.135,7.94,6.23c2.59,2.15,5.11,4.38,7.66,6.57,5.21,4.28,9.98,9.04,14.86,13.7,1.24,1.14,2.34,2.42,3.51,3.64l3.46,3.69,3.45,3.71c1.11,1.27,2.17,2.58,3.26,3.87l3.24,3.89c1.07,1.31,2.2,2.56,3.18,3.94l6.07,8.11c1.95,2.76,3.77,5.62,5.64,8.43.46.71.95,1.4,1.38,2.13l1.29,2.19,2.56,4.38a157.145,157.145,0,0,1,15.49,37.44,83.169,83.169,0,0,1,2.96,20.09c.09,3.37.08,6.74-.05,10.11-.06,1.68-.16,3.37-.32,5.05a26.3,26.3,0,0,1-.87,5.01l-.28-.11a27.055,27.055,0,0,0,.49-4.95c.06-1.67.06-3.34.02-5.01-.07-3.34-.28-6.69-.5-10.03a72.212,72.212,0,0,0-1.28-9.87c-.27-1.63-.75-3.24-1.11-4.86s-.85-3.21-1.31-4.81c-.85-3.22-2.05-6.33-3.12-9.48-.58-1.56-1.24-3.09-1.86-4.63-.65-1.53-1.2-3.1-1.95-4.59-2.76-6.05-5.73-12.02-9.08-17.78a228.273,228.273,0,0,0-22.75-32.84c-1.06-1.29-2.08-2.61-3.16-3.88l-3.34-3.73-3.33-3.75c-1.12-1.24-2.18-2.54-3.38-3.7-4.74-4.71-9.23-9.7-14.25-14.14-2.47-2.26-4.9-4.57-7.4-6.8-2.56-2.16-5.15-4.29-7.74-6.42-5.15-4.29-10.47-8.4-15.77-12.52-2.68-2.02-5.27-4.16-7.91-6.25s-5.3-4.14-7.9-6.26c-5.17-4.3-10.41-8.52-15.43-13.01a346.445,346.445,0,0,1-28.69-28.41c-2.21-2.54-4.48-5.03-6.6-7.65l-3.21-3.9-3.09-4c-1.04-1.32-2.04-2.68-3.01-4.06l-1.47-2.05-1.42-2.09a87.026,87.026,0,0,1-5.28-8.61Z"/>
      </g>
      <g id="Group_1712" data-name="Group 1712">
        <path id="Path_4544" data-name="Path 4544" class="cls-1" d="M1888.43,666.12a72.564,72.564,0,0,1-5.24,10.56c-.99,1.7-2.08,3.33-3.15,4.99-1.12,1.61-2.28,3.21-3.48,4.76l-3.82,4.49c-1.33,1.45-2.68,2.87-3.96,4.35s-2.66,2.88-3.94,4.36c-.66.72-1.28,1.49-1.95,2.2l-2.02,2.14a109.407,109.407,0,0,1-8.45,8.23c-1.5,1.27-3.06,2.47-4.59,3.72-.77.62-1.54,1.23-2.33,1.82l-2.45,1.65c-1.66,1.06-3.28,2.19-4.97,3.2q-2.595,1.41-5.22,2.78c-.87.45-1.74.93-2.63,1.33l-2.73,1.13q-2.73,1.125-5.48,2.16l-.08-.18q2.55-1.485,5.11-2.88l2.57-1.38c.84-.48,1.64-1.05,2.48-1.55,1.65-1.04,3.3-2.05,4.96-3.05l4.79-3.31,2.41-1.62,2.32-1.76c1.55-1.17,3.13-2.3,4.65-3.5,2.95-2.52,6.03-4.91,8.89-7.56,1.45-1.31,2.93-2.59,4.24-4.03,1.34-1.42,2.72-2.8,3.95-4.32s2.42-3.06,3.59-4.63l3.36-4.79c4.51-6.34,8.88-12.75,13.02-19.4Z"/>
      </g>
      <g id="Group_1713" data-name="Group 1713">
        <path id="Path_4545" data-name="Path 4545" class="cls-1" d="M1455.8,333.61a199.8,199.8,0,0,1,7.03,31.46q1.17,7.995,1.76,16.06.615,8.055.51,16.15-.165,8.085-.97,16.13-.84,8.04-2.25,15.98t-3.45,15.75a130.557,130.557,0,0,1-5.05,15.35,94.075,94.075,0,0,1-16.82,27.68,87.948,87.948,0,0,1-25.74,19.87,96.323,96.323,0,0,1-15.09,6.16c-2.57.89-5.22,1.48-7.83,2.21l-3.97.87-1.98.43-2,.35a152.573,152.573,0,0,1-32.2,1.96v-.3a194.63,194.63,0,0,0,31.75-3.96l1.95-.41,1.93-.49,3.86-.98c2.53-.8,5.1-1.47,7.57-2.42a102.69,102.69,0,0,0,14.53-6.27c1.15-.64,2.36-1.19,3.48-1.88l3.4-2.02c2.2-1.45,4.4-2.89,6.49-4.49a87.673,87.673,0,0,0,11.75-10.54,102.872,102.872,0,0,0,17.4-26.43,116.3,116.3,0,0,0,9.06-30.61,146.99,146.99,0,0,0,1.55-15.94c.26-5.33.27-10.67.14-16a347.1,347.1,0,0,0-7.09-63.6Z"/>
      </g>
      <g id="Group_1714" data-name="Group 1714">
        <path id="Path_4546" data-name="Path 4546" class="cls-1" d="M1401.83,511.6a127.419,127.419,0,0,0,38.73-30.97,108.725,108.725,0,0,0,14.19-20.5,107.276,107.276,0,0,0,8.8-23.36,153.48,153.48,0,0,0,3.72-24.65c.13-4.16.44-8.3.23-12.46-.07-2.08-.04-4.16-.16-6.23l-.46-6.22-.21-3.11-.39-3.1-.76-6.2c-.1-1.04-.27-2.06-.46-3.09l-.53-3.08-1.07-6.16-2.69-12.23q-1.635-6.045-3.18-12.13l.19-.06A192.252,192.252,0,0,1,1469,387.03l.46,6.3c.12,2.1.08,4.21.11,6.31.14,4.21-.24,8.42-.44,12.62a129.545,129.545,0,0,1-4.54,24.8,140.576,140.576,0,0,1-9.28,23.37,118.256,118.256,0,0,1-13.49,21.27,107.112,107.112,0,0,1-18.15,17.52,94.485,94.485,0,0,1-21.79,12.57Z"/>
      </g>
      <g id="Group_1715" data-name="Group 1715">
        <path id="Path_4547" data-name="Path 4547" class="cls-1" d="M-51.47,1018.74a145.9,145.9,0,0,1,16.68-4.45l8.48-1.62c2.84-.49,5.7-.84,8.54-1.26,2.85-.45,5.71-.72,8.58-1s5.73-.61,8.6-.84l8.62-.52c2.88-.17,5.75-.37,8.63-.36l8.64-.1c2.88-.03,5.76-.11,8.64.04l8.64.31,4.32.15c1.44.05,2.88.09,4.31.23,5.74.44,11.48.93,17.22,1.42,2.87.23,5.72.69,8.57,1.06l8.56,1.17,4.28.6c1.43.2,2.85.4,4.26.69l8.48,1.6,8.48,1.6,4.24.8c1.42.25,2.8.64,4.21.95l16.79,3.95c5.63,1.18,11.13,2.86,16.68,4.33l16.64,4.46L186.1,1037c5.48,1.68,11,3.39,16.49,4.94l8.24,2.39,2.06.59,2.09.48,4.18.96a254.715,254.715,0,0,0,67.92,6.45c2.84-.15,5.69-.21,8.53-.42l8.5-.82c2.84-.21,5.65-.67,8.47-1.08l4.22-.62c1.41-.2,2.82-.39,4.21-.7a295.605,295.605,0,0,0,33.18-8,308.866,308.866,0,0,0,62.59-27.27,337.087,337.087,0,0,0,28.87-18.48,274.9,274.9,0,0,0,26.7-21.58l.29.28c-3.93,4.21-8.17,8.1-12.47,11.92s-8.77,7.46-13.31,11a308.1,308.1,0,0,1-28.49,19.55,301.693,301.693,0,0,1-30.58,16.21l-1.96.92-1.99.86-3.99,1.7-3.99,1.68-4.05,1.54-4.05,1.54-2.03.77-2.05.69-8.22,2.75c-2.76.86-5.56,1.6-8.34,2.4-1.4.38-2.77.82-4.18,1.15l-4.22,1-4.22,1c-1.41.34-2.81.67-4.24.92l-8.53,1.57c-1.42.29-2.85.47-4.29.66l-4.3.58c-2.87.38-5.73.81-8.62,1l-8.64.73c-2.88.18-5.78.21-8.67.33a237.487,237.487,0,0,1-68.56-8.08l-4.18-1.08-2.09-.54-2.06-.65-8.23-2.63-16.4-5.24-16.39-5.2c-5.52-1.55-11.09-2.92-16.63-4.39-5.56-1.4-11.08-2.95-16.72-3.99l-16.85-3.37c-1.41-.26-2.8-.6-4.22-.8l-4.25-.66-8.49-1.32-8.48-1.32c-1.41-.24-2.83-.4-4.26-.55l-4.26-.49c-5.68-.65-11.36-1.39-17.04-1.98-5.7-.46-11.4-.92-17.09-1.43-1.42-.15-2.85-.21-4.28-.26l-4.28-.19-8.57-.38c-2.85-.18-5.71-.17-8.57-.19l-8.57-.05c-2.86-.08-5.71.11-8.57.17l-8.57.24c-2.85.14-5.7.38-8.56.57s-5.71.37-8.55.73l-8.53.94-8.5,1.19c-5.62,1-11.29,1.96-16.8,3.49Z"/>
      </g>
      <g id="Group_1716" data-name="Group 1716">
        <path id="Path_4548" data-name="Path 4548" class="cls-1" d="M1683.37,757.53a128.29,128.29,0,0,0-4.61,22.86,161.353,161.353,0,0,0-1,23.25,173.494,173.494,0,0,0,7.55,45.74,106.592,106.592,0,0,0,9.31,21.21,146.838,146.838,0,0,0,13.11,19.29,187.986,187.986,0,0,0,15.79,17.24,223.688,223.688,0,0,0,17.6,15.38,297.868,297.868,0,0,0,38.82,25.85,234.863,234.863,0,0,0,42.57,18.68,159.068,159.068,0,0,0,22.52,5.51,101.281,101.281,0,0,0,23.05,1.42,78.491,78.491,0,0,0,11.43-1.54,56.171,56.171,0,0,0,10.96-3.57,48.748,48.748,0,0,0,9.92-5.9,34.058,34.058,0,0,0,7.9-8.43l.27.14a32.656,32.656,0,0,1-7.55,9.04,45.939,45.939,0,0,1-9.89,6.53,63.58,63.58,0,0,1-22.87,6.08,103.571,103.571,0,0,1-23.67-.9,152.413,152.413,0,0,1-23.04-5.32,219.769,219.769,0,0,1-42.99-19.29,269.2,269.2,0,0,1-71.58-60.3,174.033,174.033,0,0,1-13.81-19.05,105.288,105.288,0,0,1-10.25-21.3,146.172,146.172,0,0,1-5.55-22.95,150.317,150.317,0,0,1-.18-47.02c.58-3.89,1.39-7.73,2.35-11.54a86.908,86.908,0,0,1,3.54-11.22Z"/>
      </g>
    </g>
    <path id="Path_4549" data-name="Path 4549" class="cls-1" d="M1535.66,421.48s37.11-31.32,50.72-40.85,45.96-12.26,56.51-13.28,29.96,7.66,34.04,13.62a5.278,5.278,0,0,1,.84,2.12,6.942,6.942,0,0,1-7.51,7.95c-13.6-1.1-47.96-3.44-60.4-.2C1594.21,394.93,1535.66,421.48,1535.66,421.48Z"/>
    <path id="Path_4550" data-name="Path 4550" class="cls-1" d="M1713.36,361.99s-12,7.15-9.96,17.36c1.22,6.09,14.41.87,14.41.87S1718.48,369.56,1713.36,361.99Z"/>
    <path id="Path_4551" data-name="Path 4551" class="cls-3" d="M1575.87,453.27l39.19-.64,4.6,12.26c0-.01-31.02-2.81-43.79-11.62"/>
    <path id="Path_4552" data-name="Path 4552" class="cls-4" d="M1611.57,452.12a8.54,8.54,0,0,0,1.02,8.17c2.89,4.43,11.4,4.94,11.4,4.94s8.85.34,12.6-3.06,6.13-10.72,4.09-16Z"/>
    <path id="Path_4553" data-name="Path 4553" class="cls-5" d="M-87.15,3805.99S-1.36,3916.29,256,3959.18s526.98-12.26,680.17,147.06,55.15,337.02,6.13,465.7-24.51,361.53,349.28,392.17,600.51-42.89,753.7-373.79-18.38-888.51-18.38-888.51l-2132.43,6.13Z"/>
  </g>
</svg>
