<svg xmlns="http://www.w3.org/2000/svg" width="1730.38" height="1085.642" viewBox="0 0 1730.38 1085.642">
  <defs>
    <style>
      .cls-1 {
        fill: #4f000b;
      }
    </style>
  </defs>
  <g id="Warstwa_11" transform="translate(-225.35 -146.65)">
    <path id="Path_4588" data-name="Path 4588" class="cls-1" d="M1751.66,533.82s-3.06,4.85-7.15,6.89-11.23,4.85-13.02,7.66S1735.06,536.37,1751.66,533.82Z"/>
    <g id="Group_1725" data-name="Group 1725">
      <path id="Path_4589" data-name="Path 4589" class="cls-1" d="M1609.45,451.35s16.85-2.81,23.23-12c0,0-4.85,8.94-7.66,9.45S1609.45,451.35,1609.45,451.35Z"/>
      <path id="Path_4590" data-name="Path 4590" class="cls-1" d="M1609.45,451.35s34.37-3.56,43.04-20.86c0,0-5.76,11.93-18.01,16.91A61.774,61.774,0,0,1,1609.45,451.35Z"/>
      <path id="Path_4591" data-name="Path 4591" class="cls-1" d="M1635.62,446.12s12.64-3.38,16.79-9.57c0,0-6.57,9.64-18.06,11.36Z"/>
    </g>
    <g id="Group_1760" data-name="Group 1760">
      <g id="Group_1726" data-name="Group 1726">
        <path id="Path_4592" data-name="Path 4592" class="cls-1" d="M1325.41,628.06a71.756,71.756,0,0,1,4.36,13.96,98.522,98.522,0,0,1,2.03,14.52,119.989,119.989,0,0,1-.05,14.69c-.23,2.44-.38,4.89-.77,7.32-.18,1.21-.31,2.44-.54,3.64l-.71,3.61c-3.94,19.26-12.83,37.34-24.65,52.92a198.631,198.631,0,0,1-19.68,21.71l-5.39,4.95c-1.79,1.66-3.71,3.16-5.56,4.75-3.66,3.22-7.59,6.1-11.41,9.13a410.731,410.731,0,0,1-49.11,31.54c-2.11,1.22-4.28,2.33-6.43,3.47l-6.46,3.42c-4.36,2.17-8.7,4.39-13.11,6.45-4.42,2.04-8.81,4.16-13.28,6.08l-6.69,2.93-6.75,2.8c-8.99,3.75-18.1,7.21-27.23,10.61-9.16,3.31-18.37,6.48-27.65,9.43-18.55,5.93-37.35,11.06-56.25,15.69-18.92,4.56-37.98,8.58-57.21,11.57l-.05-.3c19.03-3.95,37.92-8.54,56.68-13.54,9.38-2.5,18.74-5.08,28.04-7.86s18.6-5.56,27.81-8.6c18.47-5.96,36.79-12.37,54.79-19.6,17.99-7.26,35.78-15.05,53.01-23.99,4.28-2.28,8.61-4.49,12.8-6.93l6.33-3.59,6.19-3.83c4.17-2.49,8.14-5.28,12.2-7.94,2.04-1.31,3.95-2.82,5.92-4.23,1.94-1.45,3.95-2.82,5.84-4.34,3.77-3.06,7.63-6,11.2-9.29,1.79-1.63,3.66-3.18,5.39-4.88l5.2-5.08a201.145,201.145,0,0,0,18.84-22.01,163.45,163.45,0,0,0,14.91-24.72,120.871,120.871,0,0,0,9.5-27.19l.74-3.53c.23-1.18.39-2.37.6-3.56.45-2.37.66-4.77.96-7.16a116.083,116.083,0,0,0,.45-14.45c-.41-9.62-1.79-19.32-5.09-28.44Z"/>
      </g>
      <g id="Group_1727" data-name="Group 1727">
        <path id="Path_4593" data-name="Path 4593" class="cls-1" d="M1350.96,523.21a54.323,54.323,0,0,0-19.42-8.64,68.965,68.965,0,0,0-21.14-1.49l-2.65.26-1.32.13-1.31.21-2.62.42c-.87.15-1.72.39-2.59.57-1.74.33-3.41.89-5.1,1.38-.84.27-1.65.6-2.47.9l-1.23.46-1.19.55c-.79.38-1.61.69-2.36,1.13l-2.29,1.26-2.19,1.42c-.73.48-1.38,1.04-2.08,1.56a30.917,30.917,0,0,0-6.89,7.64c-.44.73-.83,1.49-1.24,2.25a25.509,25.509,0,0,0-.96,2.37l-.39,1.21c-.12.42-.21.85-.31,1.27-.22.85-.35,1.72-.53,2.58a52.517,52.517,0,0,0-.63,10.57,50.336,50.336,0,0,0,1.48,10.52,27.4,27.4,0,0,1,.63,2.67c.18.9.3,1.79.45,2.68.27,1.78.51,3.57.81,5.34,1.17,7.06,2.63,14.18,5.66,20.63a22.89,22.89,0,0,0,1.24,2.35l.67,1.14c.24.37.51.72.76,1.07l.78,1.06.87,1.02c.57.69,1.17,1.35,1.76,2.02a58.739,58.739,0,0,0,7.78,7.27c5.63,4.33,12.1,7.46,18.56,10.54,6.5,3.01,13.17,5.93,19.4,9.81,3.12,1.93,6.07,4.08,8.96,6.23s5.77,4.32,8.66,6.43c5.77,4.15,11.7,8.25,18.24,10.38a22.025,22.025,0,0,0,9.95,1.09,21.782,21.782,0,0,0,9.27-3.73,31.11,31.11,0,0,0,7.52-7.04,27,27,0,0,0,4.47-9.23,31.184,31.184,0,0,0,.9-10.34,38.217,38.217,0,0,0-.74-5.21c-.37-1.78-.71-3.57-.98-5.36-.59-3.58-.87-7.17-1.71-10.61a21.385,21.385,0,0,0-4.91-9.32l.22-.21a22.635,22.635,0,0,1,3.41,4.25,21.871,21.871,0,0,1,2.22,5.02c1.07,3.51,1.57,7.1,2.27,10.61.34,1.76.75,3.49,1.18,5.22a39.91,39.91,0,0,1,1,5.43,31.461,31.461,0,0,1-.57,11.1,29.463,29.463,0,0,1-4.63,10.2,33.787,33.787,0,0,1-7.97,7.86,23.861,23.861,0,0,1-10.51,4.4,25.147,25.147,0,0,1-11.35-1.09,47.951,47.951,0,0,1-10.08-4.74,107.358,107.358,0,0,1-9.04-6.17c-2.9-2.17-5.74-4.38-8.59-6.57s-5.7-4.32-8.68-6.22c-5.97-3.8-12.46-6.85-18.93-10.05-3.24-1.61-6.45-3.3-9.57-5.16a69.827,69.827,0,0,1-8.98-6.23,59.275,59.275,0,0,1-7.73-7.71c-.58-.7-1.17-1.39-1.72-2.1l-.84-1.06-.79-1.14c-.26-.38-.54-.75-.78-1.14l-.68-1.2a23.364,23.364,0,0,1-1.23-2.45,61.844,61.844,0,0,1-3.49-10.3c-.88-3.51-1.6-7.05-2.21-10.61l-.93-5.32c-.17-.88-.31-1.77-.5-2.63a22.659,22.659,0,0,0-.69-2.56,52.519,52.519,0,0,1-1.96-10.76,53.078,53.078,0,0,1,.22-10.98c.15-.91.25-1.83.45-2.73.09-.45.17-.91.28-1.36l.38-1.37a27.4,27.4,0,0,1,.97-2.67c.41-.85.82-1.71,1.29-2.52a31.5,31.5,0,0,1,7.36-8.44c.74-.56,1.46-1.17,2.23-1.69l2.34-1.53a46.977,46.977,0,0,1,4.96-2.5,61.992,61.992,0,0,1,21.4-4.77c1.82-.11,3.66-.09,5.48-.12l2.74.15c.91.05,1.83.08,2.73.21a65.3,65.3,0,0,1,10.75,2.02,58.375,58.375,0,0,1,10.16,3.98,41.839,41.839,0,0,1,9.06,5.98Z"/>
      </g>
      <g id="Group_1728" data-name="Group 1728">
        <path id="Path_4594" data-name="Path 4594" class="cls-1" d="M1260.96,780.2a41.984,41.984,0,0,1-.51,6.54l-.49,3.24c-.19,1.08-.44,2.14-.66,3.21s-.43,2.14-.7,3.2l-.84,3.16-.85,3.17c-.28,1.06-.65,2.08-.97,3.12l-2.01,6.23-2.3,6.12c-1.46,4.11-3.29,8.07-5.06,12.05s-3.84,7.82-5.78,11.71c-1,1.93-1.95,3.89-2.98,5.8l-3.06,5.76-11.91,23.19c-.96,1.95-1.99,3.86-3.03,5.77-1.02,1.92-2.07,3.82-3.13,5.72-2.12,3.79-4.16,7.64-6.39,11.37-4.5,7.43-8.83,14.98-13.58,22.26-2.41,3.62-4.78,7.26-7.22,10.86s-4.8,7.25-7.38,10.74c-5.1,7.04-10.22,14.06-15.52,20.95l-.25-.17c4.48-7.46,9.13-14.78,13.8-22.09l1.76-2.73,1.71-2.77,3.44-5.52c2.29-3.68,4.64-7.32,6.95-10.99,2.4-3.61,4.59-7.35,6.92-11l6.94-10.99,13.54-22.21c2.16-3.76,4.38-7.49,6.49-11.28l1.59-2.84,1.49-2.89c.99-1.93,1.94-3.88,2.91-5.82l2.82-5.86c.9-1.97,1.72-3.98,2.58-5.97,1.68-3.99,3.47-7.94,5-11.99,1.6-4.02,3.35-7.97,4.88-12.02l2.38-6.03,2.2-6.09c.36-1.02.75-2.03,1.09-3.05l1-3.08,1.01-3.08c.33-1.03.61-2.07.91-3.1a84.064,84.064,0,0,0,2.9-12.61Z"/>
      </g>
      <g id="Group_1729" data-name="Group 1729">
        <path id="Path_4595" data-name="Path 4595" class="cls-1" d="M1527.87,729.76c12.9,2.81,25.76,5.76,38.6,8.77s25.68,6,38.5,9.1c6.4,1.58,12.8,3.14,19.23,4.61,3.21.76,6.43,1.42,9.65,2.13,1.61.34,3.23.61,4.85.92s3.23.62,4.86.83a180.1,180.1,0,0,0,39.38,1.1c6.56-.49,13.08-1.3,19.54-2.38,3.23-.55,6.43-1.2,9.58-2s6.33-1.72,9.46-2.67a151.57,151.57,0,0,0,18.37-6.76,87.348,87.348,0,0,0,8.59-4.48,40.065,40.065,0,0,0,7.52-5.76,21.427,21.427,0,0,0,2.86-3.57c.18-.32.4-.64.56-.97l.48-1,.82-2.2a37.736,37.736,0,0,0,1.74-9.31c.43-6.39-.52-12.89-1.45-19.42a88.22,88.22,0,0,1-.99-9.95c-.1-3.34-.02-6.65.12-9.96s.39-6.61.68-9.9.63-6.58,1.06-9.85l.3.03c-.33,6.59-.53,13.18-.53,19.76.01,3.29.08,6.57.32,9.82.24,3.23.82,6.45,1.35,9.69,1.1,6.48,2.28,13.11,2.02,19.93a37.77,37.77,0,0,1-1.7,10.12l-.88,2.44-.57,1.24c-.2.41-.44.78-.66,1.18a24.68,24.68,0,0,1-3.26,4.18,41.222,41.222,0,0,1-8.14,6.25,74.591,74.591,0,0,1-8.98,4.61,152.671,152.671,0,0,1-18.85,6.61c-3.2.91-6.37,1.79-9.64,2.53s-6.55,1.31-9.84,1.78a188.279,188.279,0,0,1-19.82,1.67c-6.62.26-13.24.17-19.85-.09l-4.95-.26c-1.65-.09-3.3-.24-4.95-.36-3.29-.29-6.59-.58-9.86-1.07-13.1-1.85-26.07-4.37-39.01-7.03q-9.69-2.07-19.3-4.43l-9.61-2.38-9.59-2.47c-12.77-3.34-25.49-6.88-38.12-10.74Z"/>
      </g>
      <g id="Group_1730" data-name="Group 1730">
        <path id="Path_4596" data-name="Path 4596" class="cls-1" d="M1151.55,839.46a333.677,333.677,0,0,0-1.14,61.68,231.48,231.48,0,0,0,4.2,30.51,157.871,157.871,0,0,0,8.92,29.35l1.52,3.51c.51,1.17,1.12,2.29,1.68,3.44.59,1.13,1.09,2.31,1.75,3.4l1.91,3.31c.61,1.12,1.33,2.17,2.03,3.23l2.12,3.17,2.33,3.02,1.16,1.51c.4.49.84.95,1.26,1.43a117.427,117.427,0,0,0,23.14,19.89,173.031,173.031,0,0,0,26.99,14.52,248.166,248.166,0,0,0,28.99,10.28c19.72,5.78,39.98,9.69,60.35,12.73,10.19,1.52,20.41,2.81,30.66,3.95,10.25,1.12,20.51,2.07,30.78,2.96,10.27.85,20.55,1.73,30.84,2.39s20.58,1.11,30.89,1.44c20.61.71,41.24.79,61.87,1.89,20.61,1.07,41.24,3.15,61.54,7.29a299.8,299.8,0,0,1,59.21,18.48c9.53,4.07,18.81,8.68,27.94,13.57s17.96,10.31,26.69,15.87c17.33,11.23,34.36,22.89,51.45,34.43,17.07,11.57,34.22,23.01,51.65,33.97q13.065,8.235,26.51,15.81c8.95,5.07,18.09,9.8,27.41,14.12a275.257,275.257,0,0,0,28.57,11.5,185,185,0,0,0,29.88,7.29,144.633,144.633,0,0,0,30.7,1.47,131.428,131.428,0,0,0,30.29-5.54l.09.29a132.176,132.176,0,0,1-30.31,6.2,139.7,139.7,0,0,1-30.99-.91,185.5,185.5,0,0,1-30.26-6.92,259.571,259.571,0,0,1-28.94-11.23c-9.43-4.27-18.66-8.95-27.7-13.97q-13.575-7.5-26.76-15.65c-17.6-10.82-34.73-22.35-51.85-33.86-34.41-22.68-67.56-47.7-105.46-63.84a309.911,309.911,0,0,0-58.56-18.82c-20.1-4.32-40.61-6.61-61.16-7.9s-41.19-1.76-61.81-2.48c-10.31-.38-20.62-.86-30.91-1.57-10.29-.73-20.58-1.46-30.86-2.28s-20.56-1.74-30.83-2.76c-10.27-1-20.53-2.15-30.76-3.53-20.46-2.77-40.86-6.37-60.8-11.99a251,251,0,0,1-29.33-10.27,163.768,163.768,0,0,1-27.42-14.74,119.81,119.81,0,0,1-23.54-20.46c-.43-.49-.88-.97-1.29-1.48L1175,985.6l-2.38-3.12-2.16-3.27c-.72-1.09-1.45-2.17-2.07-3.32l-1.93-3.4c-.67-1.12-1.18-2.32-1.77-3.48-.56-1.17-1.18-2.32-1.7-3.52l-1.53-3.59a152.068,152.068,0,0,1-8.74-29.84,234.813,234.813,0,0,1-3.83-30.79c-.35-5.16-.49-10.33-.55-15.5q-.03-7.755.25-15.49a297.525,297.525,0,0,1,2.72-30.84Z"/>
      </g>
      <g id="Group_1731" data-name="Group 1731">
        <path id="Path_4597" data-name="Path 4597" class="cls-1" d="M1599.55,747.66a28.238,28.238,0,0,0-4.07,3.28l-1.88,1.84c-.61.63-1.2,1.28-1.8,1.92-2.37,2.58-4.57,5.32-6.72,8.1q-6.375,8.385-12.04,17.29c-7.59,11.84-14.48,24.11-21.28,36.44l-5.03,9.29-2.52,4.65-2.42,4.7-4.84,9.4c-.83,1.56-1.53,3.17-2.28,4.77l-2.22,4.8-2.19,4.81c-.71,1.61-1.5,3.19-2.11,4.85l-3.83,9.85-1.89,4.93-1.63,5.03-3.25,10.05c-.99,3.38-1.85,6.79-2.78,10.18-.91,3.4-1.87,6.78-2.58,10.23l-2.32,10.28c-.69,3.44-1.27,6.91-1.9,10.36l-.94,5.18-.69,5.22c-.43,3.48-.96,6.95-1.3,10.45l-.87,10.49c-.07.87-.17,1.75-.21,2.62l-.09,2.63-.19,5.26-.21,5.26.06,5.26.06,5.26c.02.88,0,1.75.04,2.63l.15,2.62.31,5.25.15,2.63c.04.88.1,1.75.22,2.62l1.21,10.45a172.747,172.747,0,0,0,10.69,40.68l-.27.12a151.79,151.79,0,0,1-12.73-40.43,220.805,220.805,0,0,1-2.87-42.43l.18-5.32.1-2.66c.04-.89.15-1.77.21-2.65l.96-10.6c.39-3.52.98-7.02,1.47-10.54l.77-5.26,1.02-5.22c.7-3.47,1.3-6.97,2.09-10.42l2.59-10.3c.46-1.71.81-3.45,1.35-5.13l1.57-5.07c1.07-3.38,2.06-6.77,3.18-10.12l3.59-9.98,1.79-4.99,1.99-4.91,3.94-9.84c1.33-3.27,2.84-6.47,4.25-9.71,1.44-3.22,2.78-6.5,4.27-9.7l4.46-9.61,2.23-4.8,2.33-4.76c1.57-3.17,3.09-6.36,4.69-9.51,3.31-6.25,6.61-12.5,10.25-18.57.9-1.52,1.77-3.06,2.69-4.57l2.8-4.51,2.83-4.49,2.96-4.41a195.068,195.068,0,0,1,12.73-17.01,100.7,100.7,0,0,1,7.23-7.8c.65-.61,1.27-1.24,1.93-1.83l2.02-1.74a26.263,26.263,0,0,1,4.41-3.02Z"/>
      </g>
      <g id="Group_1732" data-name="Group 1732">
        <path id="Path_4598" data-name="Path 4598" class="cls-1" d="M1700.33,336.73c-1.96-12.51-3.72-25.03-5.44-37.56-.44-3.12-.79-6.29-1.29-9.38-.23-1.54-.6-3.07-.91-4.61-.39-1.52-.71-3.06-1.15-4.57a161.646,161.646,0,0,0-5.95-17.89,143.547,143.547,0,0,0-18.07-33.09c-1.81-2.58-3.86-4.99-5.89-7.4-.98-1.24-2.12-2.33-3.2-3.49-1.09-1.14-2.16-2.3-3.27-3.42-2.33-2.12-4.58-4.34-7.01-6.35s-4.83-4.08-7.32-6.01a229.733,229.733,0,0,0-31.29-21.17,245.46,245.46,0,0,0-34.44-15.44c-23.75-8.52-48.42-14.28-73.16-19.5l.04-.2c12.48,2.06,24.97,4.23,37.29,7.19a329.769,329.769,0,0,1,36.53,10.56c2.99,1.06,5.94,2.25,8.91,3.37s5.85,2.47,8.77,3.73c1.47.61,2.88,1.34,4.31,2.03l4.28,2.1c2.84,1.42,5.6,3.01,8.4,4.51a205.353,205.353,0,0,1,31.06,21.96c2.46,2,4.8,4.13,7.19,6.21,1.21,1.02,2.33,2.14,3.48,3.24l3.46,3.26c1.1,1.14,2.17,2.31,3.26,3.47,1.07,1.17,2.2,2.28,3.18,3.53,2.01,2.45,4.14,4.81,5.98,7.39.94,1.27,1.93,2.51,2.84,3.82l2.67,3.94c.93,1.29,1.75,2.65,2.58,4s1.69,2.69,2.48,4.07a163.106,163.106,0,0,1,8.5,17.05,141.673,141.673,0,0,1,6.11,18.07c.42,1.53.74,3.1,1.11,4.65.3,1.57.65,3.12.87,4.71.48,3.17.79,6.29,1.19,9.43,1.47,12.57,2.89,25.14,4.12,37.74Z"/>
      </g>
      <g id="Group_1733" data-name="Group 1733">
        <path id="Path_4599" data-name="Path 4599" class="cls-1" d="M1673.12,758.52a285.812,285.812,0,0,0-1.54,33.84,168.179,168.179,0,0,0,.67,16.94,117.931,117.931,0,0,0,2.95,16.7c1.4,5.48,2.92,10.91,4.77,16.24a168.3,168.3,0,0,0,6.27,15.67l.85,1.93.93,1.89,1.86,3.79,2.01,3.71c.64,1.25,1.36,2.47,2.08,3.68l2.15,3.65,2.3,3.56c1.49,2.41,3.22,4.64,4.79,7.01l-.16.13a112.957,112.957,0,0,1-10.42-13.51c-1.64-2.34-2.99-4.86-4.46-7.3-.69-1.25-1.33-2.52-1.99-3.79l-.98-1.9-.9-1.94a125.558,125.558,0,0,1-6.12-15.98,130.256,130.256,0,0,1-4.05-16.59c-1.05-5.59-1.79-11.22-2.52-16.85s-1.41-11.28-1.69-16.97a133.251,133.251,0,0,1,.38-17.07,107.57,107.57,0,0,1,2.62-16.85Z"/>
      </g>
      <g id="Group_1734" data-name="Group 1734">
        <path id="Path_4600" data-name="Path 4600" class="cls-1" d="M1410.04,658.42q3.3,6.015,6.84,11.81c1.19,1.93,2.39,3.85,3.65,5.73l1.88,2.82,1.97,2.75c.64.93,1.35,1.8,2.02,2.71l1.02,1.35,1.08,1.3c.72.86,1.4,1.77,2.17,2.59s1.52,1.66,2.27,2.5a67.514,67.514,0,0,0,10.28,8.83,43.357,43.357,0,0,1-11.37-7.72,74.7,74.7,0,0,1-9.09-10.38,98.025,98.025,0,0,1-7.24-11.7A86.061,86.061,0,0,1,1410.04,658.42Z"/>
      </g>
      <g id="Group_1735" data-name="Group 1735">
        <path id="Path_4601" data-name="Path 4601" class="cls-1" d="M1230.36,220.37a336.709,336.709,0,0,0-25.26,23.85c-4.04,4.15-7.96,8.41-11.84,12.71q-5.775,6.495-11.34,13.15-11.13,13.335-21.22,27.47c-6.71,9.43-13.16,19.04-19.16,28.94-1.47,2.49-3.02,4.94-4.47,7.44l-4.33,7.53-4.15,7.63c-1.4,2.54-2.66,5.14-3.99,7.71-5.21,10.34-10.03,20.89-14.23,31.68-1.08,2.69-2.04,5.42-3.06,8.13l-1.5,4.08-1.41,4.11q-2.775,8.235-5.33,16.55c-3.4,11.08-6.4,22.28-9.23,33.52-5.67,22.48-10.36,45.18-15.2,67.86S1065,568.12,1059,590.56c-5.92,22.45-13.09,44.63-22.42,65.93a301.69,301.69,0,0,1-15.77,31.06,262.605,262.605,0,0,1-19.53,28.81l-.16-.12a293.434,293.434,0,0,0,34.02-60.37q6.78-15.975,12.09-32.52,5.355-16.515,9.76-33.32c11.71-44.82,19.84-90.57,31.77-135.44a671.844,671.844,0,0,1,20.95-66.35,416.945,416.945,0,0,1,30.39-62.6c6-9.95,12.34-19.7,19.15-29.11s13.97-18.57,21.47-27.44,15.41-17.38,23.61-25.6q6.15-6.165,12.62-11.99c4.31-3.88,8.69-7.69,13.26-11.27Z"/>
      </g>
      <g id="Group_1736" data-name="Group 1736">
        <path id="Path_4602" data-name="Path 4602" class="cls-1" d="M1589.12,218.78c10.55.98,20.75,4.6,30.15,9.52,1.2.58,2.32,1.29,3.48,1.96,1.14.69,2.32,1.31,3.42,2.05l3.3,2.25,1.65,1.13,1.57,1.23,3.14,2.46c.53.4,1.03.84,1.52,1.29l1.48,1.34,2.94,2.7c.95.94,1.83,1.93,2.75,2.89,7.25,7.83,13.03,16.69,18.93,25.4q8.775,13.125,17.06,26.58c5.54,8.96,10.73,18.14,15.75,27.38,2.52,4.61,5.03,9.23,7.62,13.77l1.98,3.37,2.03,3.3c1.43,2.25,2.87,4.49,4.12,6.87a56.821,56.821,0,0,1,3.35,7.36,41.824,41.824,0,0,1,2.14,7.85,50.966,50.966,0,0,1,.73,8.07,69.028,69.028,0,0,1-.43,8.02c-.54,5.32-1.8,10.47-2.76,15.61-.48,2.58-1,5.15-1.43,7.74-.22,1.29-.42,2.59-.59,3.89-.08.65-.16,1.3-.22,1.95-.03.32-.05.65-.06.97-.01.16,0,.32,0,.48,0,.13.04.37.03.39l-.21.21a1.419,1.419,0,0,1-.17-.57c-.02-.17-.04-.34-.05-.5-.02-.33-.03-.67-.03-1,0-.66.01-1.33.05-1.99.06-1.32.17-2.64.29-3.95.24-2.63.53-5.25.89-7.86.71-5.24,1.57-10.41,1.92-15.58a66.76,66.76,0,0,0,.15-7.74,48.3,48.3,0,0,0-.95-7.6,49.745,49.745,0,0,0-5.47-14.23c-1.22-2.26-2.6-4.46-3.99-6.65-.7-1.14-1.42-2.27-2.1-3.42l-1.96-3.46c-2.54-4.64-4.95-9.31-7.39-13.98-4.86-9.32-9.66-18.66-14.68-27.88a285.906,285.906,0,0,0-16.45-26.86q-4.515-6.45-9.48-12.57c-.83-1.02-1.62-2.06-2.47-3.05l-2.59-2.93c-.87-.97-1.71-1.96-2.6-2.92-.93-.92-1.87-1.82-2.78-2.74a116.479,116.479,0,0,0-24.57-19.01,108.2,108.2,0,0,0-14.06-6.77,83.829,83.829,0,0,0-15-4.49Z"/>
      </g>
      <g id="Group_1737" data-name="Group 1737">
        <path id="Path_4603" data-name="Path 4603" class="cls-1" d="M1701.26,379.27a80.492,80.492,0,0,0,2.1,13.83,86.852,86.852,0,0,0,4.24,13.24,76.245,76.245,0,0,0,6.38,12.26c2.56,3.84,5.31,7.61,8.14,11.34,1.39,1.88,2.78,3.76,4.22,5.61,1.42,1.86,2.85,3.72,4.31,5.56q4.32,5.565,8.87,10.93c6.07,7.17,12.46,14.05,18.95,20.84l9.75,10.17,4.87,5.09a32.016,32.016,0,0,1,4.22,6.06,30.262,30.262,0,0,1,3.85,14.17,26.846,26.846,0,0,1-4.09,14.16,138.966,138.966,0,0,1-7.78,11.91c-1.42,1.91-2.93,3.79-4.48,5.56a34.573,34.573,0,0,0-4.08,5.41,34.1,34.1,0,0,0-2.37,6.37c-.65,2.24-1.25,4.52-1.93,6.78a50.514,50.514,0,0,1-2.46,6.68,20.2,20.2,0,0,1-3.91,5.95l-.22-.2c2.9-3.69,4.09-8.3,5.18-12.81.54-2.27,1-4.57,1.52-6.88a33.7,33.7,0,0,1,2.16-6.95,36.2,36.2,0,0,1,4.1-6.02c1.46-1.83,2.86-3.65,4.17-5.56,2.61-3.81,5.04-7.8,7.35-11.85a28.73,28.73,0,0,0,2.7-6.07,23.039,23.039,0,0,0,.98-6.49,27.14,27.14,0,0,0-3.21-12.82,29.384,29.384,0,0,0-3.68-5.57l-4.68-5.27c-3.13-3.51-6.17-7.1-9.22-10.67-6.1-7.15-12.18-14.32-18.42-21.35l-4.68-5.27-4.72-5.25c-1.58-1.75-3.12-3.52-4.66-5.3s-3.07-3.57-4.58-5.39a121.3,121.3,0,0,1-8.43-11.44,68.894,68.894,0,0,1-6.31-12.84,73.269,73.269,0,0,1-3.64-13.78,67.181,67.181,0,0,1-.8-7.06,50.846,50.846,0,0,1-.03-7.09Z"/>
      </g>
      <g id="Group_1738" data-name="Group 1738">
        <path id="Path_4604" data-name="Path 4604" class="cls-1" d="M1568.54,394.45l-8.08,6.93-8.14,6.86-8.18,6.81c-2.72,2.28-5.49,4.5-8.23,6.75l-.43-.7,15.94-6.73,7.94-3.42,7.91-3.5c5.27-2.35,10.49-4.8,15.85-6.93q7.98-3.315,16.01-6.57l-.06.03a47.92,47.92,0,0,1,14.43-4.35,73.849,73.849,0,0,1,14.99-.73l14.94.48c4.98.14,9.96.35,14.94.56v.1c-4.98,0-9.97,0-14.95-.07l-14.95-.16a82.192,82.192,0,0,0-14.81.85,59.364,59.364,0,0,0-7.23,1.59,39.847,39.847,0,0,0-6.87,2.59l-.04.02-.02.01q-8.025,3.2-16.09,6.32c-5.4,2.03-10.68,4.35-15.98,6.6l-7.94,3.43-7.9,3.51-15.76,7.13-2.83,1.28,2.4-1.98c2.73-2.26,5.44-4.55,8.2-6.78l8.25-6.72,8.29-6.67,8.35-6.6Z"/>
      </g>
      <g id="Group_1739" data-name="Group 1739">
        <path id="Path_4605" data-name="Path 4605" class="cls-1" d="M1355.49,538.98a23.167,23.167,0,0,0-2.47,8.57,29.66,29.66,0,0,0,.55,8.87,32.174,32.174,0,0,0,1.24,4.28,44.562,44.562,0,0,1,1.41,4.37,25.291,25.291,0,0,1,.77,4.59,34.012,34.012,0,0,1-.03,4.63,16.6,16.6,0,0,0,.16,4.31,12.429,12.429,0,0,0,1.6,3.92,27.023,27.023,0,0,0,2.55,3.55,19.572,19.572,0,0,0,3.17,2.93c4.67,3.43,10.87,4.56,16.63,4.09l.49-.04.22.35a26.7,26.7,0,0,1,2.75,5.6,13.386,13.386,0,0,1,.67,3.1,5.852,5.852,0,0,1-.57,3.24,4.616,4.616,0,0,1-2.54,2.16,6.212,6.212,0,0,1-3.23.02,28.805,28.805,0,0,1-5.74-2.22c-1.83-.87-3.63-1.78-5.48-2.58a23.206,23.206,0,0,0-5.71-1.78,9.141,9.141,0,0,0-5.71.72c-.83.45-1.7,1.07-2.56,1.58l-2.56,1.62a14.4,14.4,0,0,0-4.43,3.79,11.134,11.134,0,0,0-1.34,5.56l-.05,1.51a6.8,6.8,0,0,1-.25,1.65,4.271,4.271,0,0,1-2.16,2.71,6.884,6.884,0,0,1-3.28.67,15.8,15.8,0,0,1-3.16-.4,51.962,51.962,0,0,1-11.47-4.48c-3.64-1.85-7.15-3.92-10.6-6.09s-6.81-4.46-10.1-6.87c-1.64-1.21-3.27-2.44-4.84-3.77a25.756,25.756,0,0,1-2.31-2.16,15.563,15.563,0,0,1-1.94-2.6,19.846,19.846,0,0,1-2.18-5.99c-.44-2.03-.73-4.05-1.01-6.07l-1.53-12.04q-.765-6.015-1.69-12a35.461,35.461,0,0,1-.03-12.33,17.771,17.771,0,0,1,6.07-10.64,19.027,19.027,0,0,1,11.42-4v.2a18.437,18.437,0,0,0-10.88,4.44,16.844,16.844,0,0,0-5.33,10.23,27.775,27.775,0,0,0-.29,5.91,43.964,43.964,0,0,0,.67,5.92q1.065,5.985,1.97,12c.62,4.01,1.11,8.04,1.66,12.03.28,1.99.58,3.98,1.01,5.9a17.627,17.627,0,0,0,1.97,5.36,14.082,14.082,0,0,0,1.69,2.25,22.559,22.559,0,0,0,2.13,1.97c1.52,1.28,3.1,2.52,4.7,3.73,3.21,2.41,6.52,4.71,9.9,6.9s6.83,4.25,10.38,6.13a51.24,51.24,0,0,0,11,4.56,14.89,14.89,0,0,0,2.85.43,5.493,5.493,0,0,0,2.62-.43,2.878,2.878,0,0,0,1.55-1.86,5.218,5.218,0,0,0,.24-1.34l.1-1.52a12.243,12.243,0,0,1,1.71-6.04,15.3,15.3,0,0,1,4.83-3.92c1.77-1.03,3.42-2.1,5.23-3.15a9.836,9.836,0,0,1,6.13-.73c4.08.75,7.73,2.66,11.39,4.34a26.847,26.847,0,0,0,5.6,2.07,5.342,5.342,0,0,0,2.76-.09,3.619,3.619,0,0,0,1.92-1.75,4.8,4.8,0,0,0,.35-2.67,12.039,12.039,0,0,0-.71-2.79,25.317,25.317,0,0,0-2.76-5.19l.71.31a26.951,26.951,0,0,1-9.31-.38,22.99,22.99,0,0,1-8.59-3.71,18.6,18.6,0,0,1-3.46-3.23,28.372,28.372,0,0,1-2.68-3.84,14.4,14.4,0,0,1-1.74-4.46,17.894,17.894,0,0,1-.13-4.72,33.033,33.033,0,0,0,.09-4.44,28.088,28.088,0,0,0-.62-4.36,43.441,43.441,0,0,0-1.24-4.3,32.877,32.877,0,0,1-1.13-4.47,28.011,28.011,0,0,1-.19-9.18,22.184,22.184,0,0,1,3.02-8.59Z"/>
      </g>
      <g id="Group_1740" data-name="Group 1740">
        <path id="Path_4606" data-name="Path 4606" class="cls-1" d="M1691.15,549.39a47.3,47.3,0,0,0,7.11,8.53,31.008,31.008,0,0,0,9,6.02,25.444,25.444,0,0,0,10.54,2.01,40.951,40.951,0,0,0,10.88-2,27.679,27.679,0,0,1-10.79,3.56,24.577,24.577,0,0,1-5.81-.13,25.466,25.466,0,0,1-5.61-1.59,27.2,27.2,0,0,1-9.32-6.76A30.406,30.406,0,0,1,1691.15,549.39Z"/>
      </g>
      <g id="Group_1741" data-name="Group 1741">
        <path id="Path_4607" data-name="Path 4607" class="cls-1" d="M1729.45,552.46a22.473,22.473,0,0,1,3.33-8.17c.42-.61.84-1.24,1.3-1.83l1.45-1.71c.52-.54,1.08-1.04,1.63-1.56s1.17-.94,1.75-1.42a23.8,23.8,0,0,1,8.06-3.89,24.19,24.19,0,0,1,4.37-.81,34.172,34.172,0,0,1,4.41-.02c-1.43.4-2.86.59-4.24.99a36.2,36.2,0,0,0-4.05,1.33,29.667,29.667,0,0,0-7.36,4.01,30.917,30.917,0,0,0-6.06,5.82A39.48,39.48,0,0,0,1729.45,552.46Z"/>
      </g>
      <g id="Group_1742" data-name="Group 1742">
        <path id="Path_4608" data-name="Path 4608" class="cls-1" d="M966.93,762.93a211.525,211.525,0,0,1-16.17,20.39c-5.76,6.49-11.78,12.77-18.08,18.74a341.387,341.387,0,0,1-184.4,90.6,480.438,480.438,0,0,0-50.97,9.82c-8.38,2.16-16.69,4.59-24.87,7.4-4.1,1.39-8.15,2.89-12.18,4.47-4.01,1.63-8,3.29-11.92,5.12a234.245,234.245,0,0,0-44.43,26.58c-13.83,10.4-26.55,22.16-39.36,33.83-12.8,11.69-25.93,23.12-40.01,33.38q-10.545,7.7-21.74,14.46c-7.43,4.5-15,8.81-22.72,12.83s-15.61,7.73-23.65,11.09-16.24,6.31-24.54,8.96-16.7,4.95-25.16,6.97c-8.48,1.96-17.01,3.68-25.6,5.09a465.526,465.526,0,0,1-51.87,5.18c-34.73,1.51-69.49-.51-103.91-4.64l.03-.3c34.51,3.13,69.21,4.39,103.75,2.5a477.893,477.893,0,0,0,51.5-5.7q12.78-2.145,25.38-5.12,12.585-3.03,24.92-6.97a317.18,317.18,0,0,0,47.77-19.72,354.182,354.182,0,0,0,44.27-26.78c14.07-10.02,27.19-21.3,40.16-32.79,12.98-11.47,25.92-23.09,39.95-33.37a247.944,247.944,0,0,1,44.84-26.37,313.291,313.291,0,0,1,49.09-17.22q12.6-3.3,25.35-5.93c8.49-1.77,17.08-3.21,25.61-4.64a365.091,365.091,0,0,0,98.34-31.6,360.419,360.419,0,0,0,85.32-58.25c6.34-5.88,12.52-11.94,18.4-18.29,2.94-3.17,5.82-6.41,8.6-9.72s5.53-6.67,8.05-10.18Z"/>
      </g>
      <g id="Group_1743" data-name="Group 1743">
        <path id="Path_4609" data-name="Path 4609" class="cls-1" d="M1056.58,763.5c17.07-18.82,32.18-39.24,46.46-60.17l2.71-3.91,2.64-3.95c1.76-2.64,3.53-5.27,5.21-7.96,3.46-5.32,6.74-10.76,9.91-16.26a357.992,357.992,0,0,0,16.99-34.07c5.13-11.61,9.73-23.44,14.1-35.32l3.19-8.95,2.95-9.03,1.47-4.52,1.37-4.55,2.74-9.1a615.734,615.734,0,0,0,16.34-74.28l.3.03a409.6,409.6,0,0,1-13.56,75.12c-3.59,12.23-7.52,24.38-12.15,36.26-4.57,11.9-9.58,23.63-15.26,35.03-.7,1.43-1.37,2.87-2.08,4.3l-2.17,4.25-2.17,4.25c-.7,1.43-1.44,2.83-2.2,4.24l-4.45,8.44-4.56,8.38c-1.51,2.8-3.1,5.56-4.63,8.34-1.5,2.81-3.13,5.54-4.71,8.31s-3.22,5.5-4.87,8.22l-2.48,4.09-2.56,4.03-2.6,4.01-2.69,3.95-2.72,3.93-2.8,3.87c-3.73,5.17-7.64,10.21-11.63,15.17a265.7,265.7,0,0,1-25.9,28.07Z"/>
      </g>
      <g id="Group_1744" data-name="Group 1744">
        <path id="Path_4610" data-name="Path 4610" class="cls-1" d="M1150.78,691.67c-3.91,8.87-8.33,17.5-12.91,26.03s-9.41,16.95-14.49,25.2c-5.05,8.27-10.34,16.4-15.8,24.41s-11.13,15.89-17.06,23.57a503.83,503.83,0,0,1-38.02,44.05,394.307,394.307,0,0,1-43.51,38.67,330.716,330.716,0,0,1-49.19,31.07q-12.975,6.615-26.54,11.93a268.005,268.005,0,0,1-27.58,9.24,284.086,284.086,0,0,1-28.41,6.18c-9.56,1.66-19.25,2.4-28.87,3.36-19.28,1.79-38.56,3.58-57.86,5.12l-57.9,4.53c-9.64.78-19.28,1.58-28.88,2.64s-19.17,2.31-28.62,4.13a185.718,185.718,0,0,0-27.81,7.45,190.558,190.558,0,0,0-26.24,11.82c-8.46,4.57-16.69,9.6-24.77,14.86-8.06,5.3-15.99,10.82-23.87,16.42-7.98,5.51-15.82,11.22-23.99,16.46-4.06,2.66-8.07,5.39-12.25,7.87l-6.22,3.79-3.11,1.89c-1.04.63-2.12,1.19-3.17,1.79-16.83,9.68-34.56,18.01-53.17,23.75a242.375,242.375,0,0,1-28.31,6.92c-2.39.43-4.79.79-7.18,1.19-2.4.37-4.78.82-7.19,1.12l-7.21.95c-2.4.33-4.81.64-7.21.89-9.62,1.13-19.26,2.04-28.9,2.97l-28.9,2.8-.03-.3c19.21-2.38,38.47-4.48,57.65-6.97,2.4-.29,4.79-.64,7.18-1l7.17-1.06c2.39-.33,4.76-.82,7.14-1.22,2.37-.43,4.76-.82,7.12-1.29a258.111,258.111,0,0,0,27.98-7.23c18.36-5.85,35.81-14.25,52.43-24.02s32.64-20.61,48.39-31.81c15.78-11.24,31.75-22.37,48.97-31.53a193.769,193.769,0,0,1,26.72-11.86,188.77,188.77,0,0,1,28.27-7.42c19.16-3.55,38.54-4.97,57.85-6.37,19.32-1.37,38.65-2.45,57.96-3.8s38.61-2.76,57.89-4.54c9.64-.92,19.29-1.62,28.82-3.22a255.265,255.265,0,0,0,28.28-6.27,269.747,269.747,0,0,0,53.63-21.64,334.643,334.643,0,0,0,48.45-31.56q11.46-8.835,22.24-18.52c7.18-6.45,14.12-13.16,20.9-20.02a501.27,501.27,0,0,0,38.08-43.62c11.86-15.25,23.03-31.05,33.35-47.4a520.739,520.739,0,0,0,28.46-50.53Z"/>
      </g>
      <g id="Group_1745" data-name="Group 1745">
        <path id="Path_4611" data-name="Path 4611" class="cls-1" d="M1697.58,317.29c5.12,9.04,10.77,17.77,16.7,26.28s12.27,16.75,18.97,24.67a207.564,207.564,0,0,0,21.57,22.41c7.81,6.84,16.27,12.9,24.36,19.44,8.11,6.5,16.08,13.19,23.82,20.13,3.89,3.45,7.68,7.02,11.47,10.57,3.74,3.62,7.44,7.27,11.05,11.02a305.413,305.413,0,0,1,20.59,23.44,185.127,185.127,0,0,1,17.42,25.85l-.09.05a206.849,206.849,0,0,0-17.9-25.45c-6.55-8.05-13.56-15.71-20.77-23.18q-10.845-11.16-22.41-21.61c-7.7-6.97-15.51-13.81-23.54-20.41-7.97-6.66-16.34-12.83-24.24-19.61a220.658,220.658,0,0,1-21.97-22.13,277.526,277.526,0,0,1-18.97-24.77,272.984,272.984,0,0,1-16.16-26.67Z"/>
      </g>
      <g id="Group_1746" data-name="Group 1746">
        <path id="Path_4612" data-name="Path 4612" class="cls-1" d="M1758.31,474.03a194.474,194.474,0,0,1,44.44,18.44l5.24,3,5.11,3.21c.85.54,1.72,1.05,2.54,1.62l2.48,1.72c1.65,1.15,3.32,2.27,4.95,3.46l4.78,3.68c.79.62,1.6,1.23,2.37,1.87l2.28,1.98,4.56,3.96c1.46,1.38,2.89,2.8,4.33,4.2,2.97,2.73,5.56,5.81,8.27,8.79,1.39,1.46,2.56,3.1,3.82,4.67,1.22,1.6,2.51,3.15,3.68,4.78l3.39,4.99c.56.84,1.15,1.65,1.68,2.51l1.54,2.59c1.02,1.73,2.07,3.45,3.06,5.19l2.79,5.35a196.31,196.31,0,0,1,16.11,45.33c1.81,7.84,3.11,15.76,4.42,23.71a128.861,128.861,0,0,1,.56,24.13,118.925,118.925,0,0,1-3.93,23.83l-.91,2.89c-.16.48-.29.97-.46,1.44l-.55,1.41-1.11,2.83-1.31,2.74c-.22.46-.43.92-.66,1.37l-.78,1.31c-.52.87-1.02,1.76-1.57,2.61-1.16,1.65-2.25,3.35-3.49,4.94a125.3,125.3,0,0,1-35.33,32.57c-1.73,1.04-3.43,2.11-5.25,2.99l-2.68,1.39-1.34.7c-.45.23-.92.41-1.38.61-1.85.8-3.69,1.62-5.54,2.39l-5.7,2a101.473,101.473,0,0,1-23.66,4.38l-.01-.1a104.671,104.671,0,0,0,23.52-4.75l5.65-2.04c1.84-.79,3.66-1.62,5.49-2.43.45-.21.92-.4,1.36-.62l1.33-.7,2.65-1.41c1.79-.89,3.48-1.98,5.18-3.02a128.35,128.35,0,0,0,34.88-32.56c1.22-1.58,2.31-3.26,3.45-4.9.54-.84,1.02-1.7,1.53-2.56l.76-1.28c.23-.44.43-.9.65-1.34l1.28-2.69,1.08-2.78.54-1.39c.17-.47.31-.95.46-1.42l.91-2.85a117.608,117.608,0,0,0,3.99-23.61,134.184,134.184,0,0,0-.38-23.97c-1.23-7.91-2.46-15.86-4.19-23.69a208.646,208.646,0,0,0-6.5-23.15c-.68-1.89-1.3-3.79-2.04-5.66l-2.25-5.58c-.72-1.87-1.65-3.66-2.48-5.48-.85-1.82-1.68-3.65-2.65-5.4l-2.82-5.31c-1-1.74-2.07-3.44-3.1-5.15l-1.56-2.57c-.53-.85-1.13-1.65-1.69-2.48l-3.42-4.94c-1.18-1.62-2.47-3.15-3.7-4.73-1.26-1.56-2.43-3.19-3.83-4.62-2.72-2.94-5.32-5.99-8.29-8.69-1.45-1.38-2.88-2.79-4.34-4.15l-4.57-3.91-2.28-1.95c-.78-.63-1.58-1.23-2.37-1.84l-4.74-3.69c-1.61-1.19-3.27-2.32-4.9-3.48l-2.46-1.73c-.82-.57-1.68-1.09-2.52-1.63l-5.07-3.23-5.2-3.03a221.022,221.022,0,0,0-21.51-10.73,186.612,186.612,0,0,0-22.61-8.21Z"/>
      </g>
      <g id="Group_1747" data-name="Group 1747">
        <path id="Path_4613" data-name="Path 4613" class="cls-1" d="M1891.01,642.41a267.808,267.808,0,0,0-2.23-49.67c-.62-4.1-1.16-8.22-2-12.28-.4-2.03-.71-4.09-1.23-6.1l-1.46-6.05a157.024,157.024,0,0,0-8.13-23.51c-.85-1.89-1.63-3.82-2.53-5.68l-2.79-5.57-1.4-2.78-1.5-2.73-2.98-5.46c-4.18-7.17-8.58-14.2-13.33-21-9.57-13.53-20.1-26.47-32.23-37.84l.06-.08a175.822,175.822,0,0,1,17.56,17.71,233.554,233.554,0,0,1,15.44,19.62c4.82,6.8,9.17,13.91,13.3,21.13l2.94,5.51,1.46,2.76,1.36,2.81,2.7,5.63c.87,1.89,1.62,3.84,2.44,5.75a215.406,215.406,0,0,1,13.14,48.05,229.978,229.978,0,0,1,2.22,24.86,188.731,188.731,0,0,1-.71,24.94Z"/>
      </g>
      <g id="Group_1748" data-name="Group 1748">
        <path id="Path_4614" data-name="Path 4614" class="cls-1" d="M1690.23,636.53a62.7,62.7,0,0,0,9.38.45,46.743,46.743,0,0,0,9.24-1.08,45.372,45.372,0,0,0,8.78-2.96c2.84-1.26,5.66-2.69,8.64-3.87a46.429,46.429,0,0,1,9.22-2.57c3.14-.55,6.32-.76,9.45-1,3.14-.27,6.26-.65,9.36-1.18a38.863,38.863,0,0,0,4.58-1,12.883,12.883,0,0,0,4.13-1.83,11.153,11.153,0,0,0,2.62-3.59,43.248,43.248,0,0,0,1.93-4.21,41.606,41.606,0,0,0,2.41-8.9,23.769,23.769,0,0,0,.24-4.5,6.189,6.189,0,0,0-1.42-3.71,5.52,5.52,0,0,0-3.52-1.64,11.219,11.219,0,0,0-4.26.36,10.166,10.166,0,0,0-2.03.76c-.67.33-1.37.69-2.05,1.06l-4.12,2.27c-2.75,1.52-5.49,3.08-8.23,4.63-5.49,3.09-10.98,6.19-16.53,9.19l-.1-.17c5.21-3.57,10.5-7,15.83-10.37,2.68-1.66,5.36-3.33,8.07-4.96q2.025-1.23,4.1-2.39c.7-.39,1.39-.77,2.12-1.15a12.194,12.194,0,0,1,2.37-.94,12.659,12.659,0,0,1,5.1-.42,7.423,7.423,0,0,1,4.81,2.36,8.2,8.2,0,0,1,1.84,4.97,24.8,24.8,0,0,1-.36,4.92,39.388,39.388,0,0,1-2.8,9.23,36.861,36.861,0,0,1-2.21,4.28c-.41.69-.87,1.36-1.35,2.02a7.655,7.655,0,0,1-1.81,1.78,13.71,13.71,0,0,1-4.55,1.77c-1.56.35-3.12.63-4.69.87-3.13.47-6.27.78-9.41,1.13a53.383,53.383,0,0,0-18.09,4.47c-2.84,1.25-5.63,2.71-8.58,3.96a42.145,42.145,0,0,1-9.18,2.85,44.417,44.417,0,0,1-9.55.61,41.9,41.9,0,0,1-4.75-.42,41.288,41.288,0,0,1-4.67-.88Z"/>
      </g>
      <g id="Group_1749" data-name="Group 1749">
        <path id="Path_4615" data-name="Path 4615" class="cls-1" d="M1751.88,569.38c1.08,2.19,2.07,4.38,2.99,6.6.44,1.12.82,2.28,1.35,3.37a23.232,23.232,0,0,0,1.84,3.12c1.39,1.98,2.8,3.92,4.28,5.8,1.46,1.9,3.03,3.69,4.66,5.51l-.06.08a24.909,24.909,0,0,1-5.43-4.92,35.128,35.128,0,0,1-3.92-6.19c-.53-1.1-1.08-2.18-1.66-3.25-.6-1.06-1.25-2.09-1.82-3.17a26.264,26.264,0,0,1-2.33-6.92Z"/>
      </g>
      <g id="Group_1750" data-name="Group 1750">
        <path id="Path_4616" data-name="Path 4616" class="cls-1" d="M1761.93,622.85a13.8,13.8,0,0,1,4.12,3.56,16.469,16.469,0,0,1,2.74,4.73,33.06,33.06,0,0,1,1.16,5.32c.32,1.76.63,3.52.81,5.34a15.741,15.741,0,0,1-2.6,10.63,17.126,17.126,0,0,1-8.81,6.34l-.09-.18a30.449,30.449,0,0,0,7.13-7.36,20.782,20.782,0,0,0,2.22-4.45,27.132,27.132,0,0,0,1.06-4.99,14.056,14.056,0,0,0-.35-5.2,22.6,22.6,0,0,0-2.05-4.79,49.757,49.757,0,0,0-5.47-8.79Z"/>
      </g>
      <g id="Group_1751" data-name="Group 1751">
        <path id="Path_4617" data-name="Path 4617" class="cls-1" d="M1712.6,649.48q4.5,1.89,9.11,3.4c3.08,1,6.17,1.94,9.31,2.71,3.13.81,6.29,1.48,9.48,2.03,1.59.31,3.19.52,4.8.73,1.6.27,3.22.35,4.84.58a67.664,67.664,0,0,1-9.75-.55c-1.63-.15-3.22-.49-4.84-.75-1.59-.34-3.2-.65-4.78-1.07a78.185,78.185,0,0,1-9.32-2.96q-2.28-.885-4.51-1.88C1715.47,651.01,1714,650.31,1712.6,649.48Z"/>
      </g>
      <g id="Group_1752" data-name="Group 1752">
        <path id="Path_4618" data-name="Path 4618" class="cls-1" d="M1348.43,521.12a118.759,118.759,0,0,0,15.32-1.06,127.56,127.56,0,0,0,15.05-2.85,107.166,107.166,0,0,0,28.27-11.34,76.574,76.574,0,0,0,22.92-19.98c.74-1.04,1.53-2.05,2.24-3.12l2.09-3.23,2.08-3.24c.7-1.07,1.3-2.21,1.96-3.31a146.721,146.721,0,0,0,7.11-13.62,142,142,0,0,0,9.61-29.05,190.278,190.278,0,0,0,3.62-30.4c.51-10.22.52-20.48.18-30.73-.23-10.26-.82-20.52-1.27-30.78l.2-.02c1.11,10.22,2.08,20.46,2.63,30.74.33,5.14.44,10.28.6,15.43.06,2.57,0,5.15,0,7.73-.02,1.29.01,2.58-.05,3.87l-.16,3.87a172.973,172.973,0,0,1-3.91,30.71,128.2,128.2,0,0,1-10.45,29.11,211.413,211.413,0,0,1-15.94,26.43,82.942,82.942,0,0,1-10.25,11.59,79.079,79.079,0,0,1-12.33,9.43,94.568,94.568,0,0,1-28.77,11.42,109.76,109.76,0,0,1-30.75,2.6Z"/>
      </g>
      <g id="Group_1753" data-name="Group 1753">
        <path id="Path_4619" data-name="Path 4619" class="cls-1" d="M1617.68,219.7a92.755,92.755,0,0,0-15.24-1.29,112.431,112.431,0,0,0-15.24.89,117.822,117.822,0,0,0-29.44,7.61,109.227,109.227,0,0,0-26.57,14.94,124.613,124.613,0,0,0-21.65,21.59,255.833,255.833,0,0,0-17.13,25.39c-5.35,8.72-10.63,17.56-16.84,25.8a131.821,131.821,0,0,1-21.3,22.35,127.348,127.348,0,0,1-12.46,9.11c-4.28,2.84-8.79,5.32-13.32,7.72l-.1-.17c4.36-2.69,8.71-5.39,12.85-8.38,2.11-1.44,4.11-3.03,6.14-4.57,1-.79,1.97-1.62,2.96-2.42s1.96-1.63,2.91-2.48a123.465,123.465,0,0,0,10.91-10.67c3.42-3.77,6.67-7.68,9.7-11.77,6.09-8.16,11.48-16.85,16.95-25.52a210.766,210.766,0,0,1,17.88-25.09,153.727,153.727,0,0,1,22.1-21.41,133.55,133.55,0,0,1,12.62-8.86,112.733,112.733,0,0,1,13.72-7.11,102.146,102.146,0,0,1,29.91-7.61,104.769,104.769,0,0,1,15.44-.4c2.57.11,5.14.36,7.69.7a62.373,62.373,0,0,1,7.57,1.44Z"/>
      </g>
      <g id="Group_1754" data-name="Group 1754">
        <path id="Path_4620" data-name="Path 4620" class="cls-1" d="M1492.86,286.99c2.66,12.26,4.88,24.6,6.9,36.98q1.47,9.285,2.79,18.61c.47,3.1.85,6.22,1.22,9.33q.585,4.665,1.08,9.35.51,4.68.9,9.37c.26,3.13.57,6.25.77,9.38.46,6.26.83,12.52,1.18,18.78.12,3.13.27,6.27.36,9.4.01,3.14.12,6.28.03,9.42l-.22,4.71c-.08,1.57-.07,3.14-.26,4.7l-.44,4.69-.22,2.35c-.08.78-.22,1.56-.33,2.33a155.278,155.278,0,0,1-9.47,36.48c-.55,1.48-1.23,2.9-1.83,4.36-.64,1.44-1.2,2.92-1.92,4.32-1.38,2.84-2.71,5.69-4.27,8.44A140.51,140.51,0,0,1,1479.07,506a115.106,115.106,0,0,1-12.09,14.57,97.15,97.15,0,0,1-14.75,11.88,131,131,0,0,1-16.48,9.21,140.637,140.637,0,0,1-17.52,6.9l-.06-.19a152.478,152.478,0,0,0,17.14-7.61,141.117,141.117,0,0,0,16.05-9.59,95.437,95.437,0,0,0,14.25-11.94,124.985,124.985,0,0,0,11.79-14.42l1.36-1.89,1.29-1.95c.85-1.31,1.74-2.58,2.55-3.91,1.6-2.67,3.24-5.31,4.71-8.06,1.56-2.7,2.91-5.5,4.3-8.29.73-1.38,1.29-2.83,1.94-4.25.61-1.43,1.3-2.83,1.86-4.29a168.774,168.774,0,0,0,10.13-35.94c.13-.77.29-1.54.38-2.31l.28-2.33.56-4.65c.36-3.1.43-6.24.63-9.35.11-3.12.03-6.25.05-9.38.02-1.56-.12-3.13-.18-4.69l-.25-4.69c-.18-3.13-.44-6.25-.68-9.37s-.62-6.23-.92-9.35q-.99-9.345-2.2-18.65c-3.06-24.86-6.66-49.65-10.54-74.41Z"/>
      </g>
      <g id="Group_1755" data-name="Group 1755">
        <path id="Path_4621" data-name="Path 4621" class="cls-1" d="M1549.96,450.42c9.55.81,19.1,1.25,28.63,1.41,4.77.05,9.53.06,14.29-.09s9.51-.32,14.25-.73a202.35,202.35,0,0,0,28.18-4.02c4.62-1.07,9.22-2.26,13.73-3.78a119.112,119.112,0,0,0,13.26-5.38,83.356,83.356,0,0,1-12.74,6.75,113.841,113.841,0,0,1-13.69,4.68c-4.65,1.3-9.4,2.21-14.15,3.04-4.76.77-9.56,1.29-14.36,1.7a213.823,213.823,0,0,1-28.86.16A192.7,192.7,0,0,1,1549.96,450.42Z"/>
      </g>
      <g id="Group_1756" data-name="Group 1756">
        <path id="Path_4622" data-name="Path 4622" class="cls-1" d="M1573.11,452.8c2.61.96,5.2,1.93,7.85,2.75,2.62.88,5.27,1.69,7.91,2.47,5.3,1.54,10.65,2.89,16.04,3.97l4.06.76c1.35.26,2.72.39,4.08.61l2.04.31,2.05.2c1.37.11,2.74.3,4.11.39,2.74.11,5.5.32,8.25.21,2.77.12,5.5-.31,8.29-.42a67.537,67.537,0,0,1-16.61,1.77,100.306,100.306,0,0,1-16.66-1.85,123.012,123.012,0,0,1-16.13-4.45A104,104,0,0,1,1573.11,452.8Z"/>
      </g>
      <g id="Group_1757" data-name="Group 1757">
        <path id="Path_4623" data-name="Path 4623" class="cls-1" d="M1630.38,465.01a17.48,17.48,0,0,0,4.98-2.59,13.387,13.387,0,0,0,3.64-4.08,11.641,11.641,0,0,0,.62-1.22c.1-.21.2-.41.29-.62l.21-.66c.13-.44.32-.87.41-1.32l.27-1.36a8.007,8.007,0,0,0,.17-1.39l.13-1.4c.03-.94-.02-1.89.01-2.85.19.93.34,1.88.48,2.84a20.049,20.049,0,0,1-.02,2.9,13.584,13.584,0,0,1-1.71,5.59,12.243,12.243,0,0,1-4.06,4.22A12.739,12.739,0,0,1,1630.38,465.01Z"/>
      </g>
      <g id="Group_1758" data-name="Group 1758">
        <path id="Path_4624" data-name="Path 4624" class="cls-1" d="M1610.97,454a15.3,15.3,0,0,0,.79,3.86,9.353,9.353,0,0,0,1.93,3.25,4.18,4.18,0,0,0,.67.66,4.261,4.261,0,0,0,.74.59l.79.54c.29.14.58.28.86.43a4.112,4.112,0,0,0,.89.38l.92.34c.63.21,1.28.33,1.93.54-.67.01-1.35-.02-2.04-.06a10.883,10.883,0,0,1-2.01-.48,8.186,8.186,0,0,1-5.45-5.96A9.722,9.722,0,0,1,1610.97,454Z"/>
      </g>
      <g id="Group_1759" data-name="Group 1759">
        <path id="Path_4625" data-name="Path 4625" class="cls-1" d="M1825.75,979.01c9.72,4.28,19.45,8.43,29.19,12.59,4.86,2.11,9.69,4.31,14.65,6.18,2.47.98,4.99,1.78,7.51,2.62s5.06,1.58,7.62,2.29l7.66,2.1c2.57.66,5.13,1.31,7.68,2,2.55.71,5.15,1.22,7.72,1.85,2.58.59,5.14,1.27,7.73,1.76l7.75,1.7,7.79,1.48,3.9.77,3.92.61c2.62.41,5.23.85,7.85,1.32l-.02.2c-2.65-.14-5.31-.31-7.96-.51l-3.98-.32-3.96-.51c-2.64-.36-5.28-.7-7.91-1.13l-7.84-1.52a242.887,242.887,0,0,1-30.68-8.75l-3.76-1.31c-1.24-.47-2.49-.93-3.74-1.38-2.49-.92-5.02-1.73-7.51-2.65-2.5-.9-5.03-1.7-7.55-2.57l-7.51-2.68c-2.47-.97-4.94-1.98-7.37-3.04-2.42-1.1-4.85-2.17-7.24-3.34a159.4,159.4,0,0,1-14.04-7.57Z"/>
      </g>
    </g>
  </g>
</svg>
